<?xml version="1.0" encoding="UTF-8"?>
<svg version="1.1" viewBox="0 0 1024 1024" width="1024" height="1024" xmlns="http://www.w3.org/2000/svg">
<path transform="translate(0)" d="m0 0h1024v1024h-1024z" fill="#FCFCFC"/>
<path transform="translate(497,49)" d="m0 0h9l13 4 10 7 8 9 4 11v18l-4 11-9 10-3 1 10 16 28 42 9-6 17-13 14-11 12-9-6-15v-14l4-11 7-9 9-6 7-3 5-1h10l12 4 9 7 6 8 4 10v16l-4 11-9 10-10 6h-3l-3 21-12 75-1 4h7l11 3 10 6 9 9 8 16 2 11v150l3 9 7 9 8 6 10 4h16l6-3 5-4 6-11 8-7 6-2h5v-8l-6-5-3-8 1-14 2-11 4-6 6-4 7-1 12 2 1-11 20-135 2-13v-13l-5-30 1-8 14-34 13-31 18 2 8 2 5 54 1 16-4 13-11 27-13 87-11 75-1 5 13 1 8 7 2 5v8l-3 17-4 6-6 5-5 1-1 10 6 1 10 6 7 8 4 8 2 9v14l-3 18-4 11-6 9-7 6-7 3h-3l-2 17-9 54-4 11-6 9-9 7-12 5-6 1h-10l-12-3-10-6-7-7-7-14-1-4v-14l9-58v-4l-12 3-9 1h-9l-16-3-10-4h-2v172l-3 14-7 14-7 8-11 7-11 4-8 1h-14l4 31 3 26h7l12 4 9 6 8 9 4 11 1 6v11l-3 6-6 4h-84l-8-4-6-7-3-16-11-82v-5h-98l-8 68-4 32-4 8-5 4-5 2h-84l-7-6-1-3v-17l4-11 7-9 8-6 10-4 9-1 3-29 1-5-4 1h-29l-20-3-18-5-20-9-17-5-12-2h-48l-19-3-18-6-16-8-13-8-16-12-11-9-5-4-2-3v-7l3-3 27-5 15-5 17-8 14-9 12-9 11-9 7-7 6-5 7-8 9-10 13-17 10-15 2-5-16-15-10-12-7-11-5-10-3-9-1-6v-16l4-13 6-10 12-14 14-12 17-12 19-12 19-11 1-114 1-21 4-12 6-9 7-7 10-6 15-4h4l-5-30-10-66v-3l-9-3-8-6-6-8-4-11-1-5v-9l3-10 6-9 7-6 8-4 7-2h12l12 4 9 7 7 9 3 9v15l-4 10-3 5 4 2 28 22 20 15 2 1 2-5 34-51-2-4-6-8-4-9-1-4v-17l4-11 6-8 9-8 10-4z" fill="#0C395C"/>
<path transform="translate(378,312)" d="m0 0h245l8 3 6 5 3 6 1 4v360l-3 9-5 6-6 3-30 1h-211l-13-1-7-4-5-6-2-11v-354l2-9 4-6 5-4z" fill="#A2C6E0"/>
<path transform="translate(357,271)" d="m0 0h287l10 4 7 6 5 9 1 4v426l-4 10-6 7-9 5-4 1h-288l-10-4-6-5-6-12-1-86 1-14 6-9 4-11 1-5v-12l-4-13-6-10-1-1-1-44v-216l2-11 4-8 8-7zm21 41-9 3-6 5-3 6-1 7v354l2 11 6 7 6 3 13 1h218l23-1 8-5 5-8 1-5v-360l-3-8-5-6-6-3-4-1z" fill="#1F547E"/>
<path transform="translate(499,122)" d="m0 0 5 1 10 16 10 15 16 25 13 19 3 3 8 1 9-6 13-11 20-15 15-12 7-5 8-1 1 2-15 97-2 1h-240l-3-16-12-79v-5l7 1 19 14 15 12 14 11 10 8 7 5h8l18-27 17-26 13-20z" fill="#F2B628"/>
<path transform="translate(267,616)" d="m0 0h2l3 9 7 8 12 5h14l10-2v83l2 12 6 11 7 8 14 8 9 3 6 1h22v6l-8 1h-26l-18-3-17-5-20-9-15-4-19-3h-48l-20-4-15-6-16-9-16-12v-2l15-4 18-8 16-9 14-10 11-9 10-9 16-16 9-11 8-10z" fill="#B53E3E"/>
<path transform="translate(312,446)" d="m0 0h2v37l-13 8-12 9-7 6-5 7-2 7 1 8 6 10 10 10 13 10 10 8 8 10 4 10v12l-5 12-7 7-8 4h-12l-6-3-5-6-1-3v-8l4-5 9-3-3-5-17-14-13-12-10-11-8-13-4-11-1-13 4-13 7-9 9-10 11-9 17-12 19-12z" fill="#205580"/>
<path transform="translate(312,636)" d="m0 0 3 1v82l2 12 6 11 7 8 14 8 9 3 6 1h22v6l-8 1h-26l-18-3-17-5-20-9-15-4-19-3v-1l-25-1 5-7h2l2-4 6-8 9-14 9-16 8-16 8-18 7-20 20-3z" fill="#A03035"/>
<path transform="translate(790,490)" d="m0 0 2 2 3 9-1 4-5 8-1 5v8l3 10 9 10 14 5-2 16-9 54-4 8-7 6-9 3h-8l-9-3-6-4-4-5-3-8v-9l15-91 9-4 7-8 5-11z" fill="#B53E3E"/>
<path transform="translate(399,763)" d="m0 0h38l-1 15-9 78-2 4h-71v-7l4-8 7-5 6-2 18-1 4-28 5-41z" fill="#205580"/>
<path transform="translate(571,763)" d="m0 0h38l8 66 2 7 1 1 19 1 9 3 6 7 2 7v5h-72l-2-5-11-87z" fill="#205580"/>
<path transform="translate(846,138)" d="m0 0h1l6 54-14 36-24 163-1 5h-7l-3-1 1-12 23-153v-10l-5-27 1-6 13-29z" fill="#AECEE4"/>
<path transform="translate(765,465)" d="m0 0 5 1 3 4 1 4v11l-5 12-3 3-5-1-4-6h-1l-6 29-5 4-10 4-5 1h-18l-14-4-11-6v-41l8 6 13 7 9 2h16l10-3 10-7 3-8 5-9z" fill="#205580"/>
<path transform="translate(776,409)" d="m0 0 12 1 46 7-2 15-10 5-4 8-3 15-13 7-6 7-3 8h-1l-2-15-6-12-1-4 1-6v-8l-4-8-5-4v-9z" fill="#B53E3E"/>
<path transform="translate(818,477)" d="m0 0h12l7 3 4 5 2 6v15l-3 15-4 8-6 5-10 1-8-2-6-5-1-2v-8l4-6 4-2h3v-9l1-4-3 1-5-5v-7l4-6z" fill="#205580"/>
<path transform="translate(497,69)" d="m0 0h8l8 3 7 7 2 5v12l-3 6-5 5-8 4h-9l-9-4-6-8-1-3v-13l5-8 8-5z" fill="#F2B628"/>
<path transform="translate(465,285)" d="m0 0h74l4 4v6l-4 5-3 1h-69l-6-4-1-6 3-5z" fill="#0C395C"/>
<path transform="translate(640,100)" d="m0 0h10l8 4 5 8v11l-4 6-5 4-10 2-9-3-6-7-1-2v-11l5-8z" fill="#F2B628"/>
<path transform="translate(350,100)" d="m0 0h10l6 3 5 6 1 2v12l-4 6-5 4-6 2-9-1-6-4-4-7-1-9 4-8 6-5z" fill="#F2B628"/>
<path transform="translate(793,540)" d="m0 0 7 6 1 4-11 68-1 4-6 1-3-3 6-42 6-37z" fill="#A03035"/>
<path transform="translate(313,505)" d="m0 0 2 1v35l-5-2-11-9-4-6v-5l9-9z" fill="#FBFBFC"/>
</svg>
