<svg width="192" height="192" viewBox="0 0 192 192" xmlns="http://www.w3.org/2000/svg">
  <rect width="192" height="192" fill="#FCFCFC"/>
  <g transform="translate(96,96) scale(0.08)">
    <g transform="translate(-512,-512)">
      <path fill="#0C395C" d="M0 0h1024v1024H0V0z"/>
      <path fill="#A2C6E0" d="M378 312h245l8 3 6 5 3 6 1 4v360l-3 9-5 6-6 3-30 1H391l-13-1-7-4-5-6-2-11V323l2-9 4-6 5-4z"/>
      <path fill="#1F547E" d="M357 271h287l10 4 7 6 5 9 1 4v426l-4 10-6 7-9 5-4 1H356l-10-4-6-5-6-12-1-86 1-14 6-9 4-11 1-5v-12l-4-13-6-10-1-1-1-44V312l2-11 4-8 8-7zm21 41l-9 3-6 5-3 6-1 7v354l2 11 6 7 6 3 13 1h218l23-1 8-5 5-8 1-5V340l-3-8-5-6-6-3-4-1z"/>
      <path fill="#F2B628" d="M499 122l5 1 10 16 10 15 16 25 13 19 3 3 8 1 9-6 13-11 20-15 15-12 7-5 8-1 1 2-15 97-2 1H382l-3-16-12-79v-5l7 1 19 14 15 12 14 11 10 8 7 5h8l18-27 17-26 13-20z"/>
      <text x="200" y="800" font-family="Arial Black, sans-serif" font-size="200" font-weight="900" fill="#FCFCFC">CK</text>
    </g>
  </g>
</svg>