<?xml version="1.0" encoding="UTF-8"?>
<svg xmlns="http://www.w3.org/2000/svg" version="1.1" width="912" height="912" style="background-color:transparent;">
  <path d="M0 0 C9.07123294 7.38725624 13.42825848 16.06389144 14.84375 27.6328125 C15.35877847 38.73167597 12.44082604 48.70730327 5.4375 57.375 C3.33725883 59.63679818 1.18891543 61.82496775 -1 64 C-0.22474976 65.15894775 -0.22474976 65.15894775 0.56616211 66.34130859 C12.48064069 84.16106423 24.30940761 102.03248703 36 120 C42.03354549 116.08863455 47.79544478 111.95495915 53.4375 107.5 C55.00508558 106.27067679 56.5727978 105.04151505 58.140625 103.8125 C58.93791016 103.18601562 59.73519531 102.55953125 60.55664062 101.9140625 C63.00485698 99.99619517 65.4616429 98.08992291 67.921875 96.1875 C69.11985718 95.2603418 69.11985718 95.2603418 70.34204102 94.31445312 C71.85993287 93.14020806 73.37859983 91.96696397 74.89819336 90.79492188 C79.38101414 87.31927291 83.72084318 83.72393202 88 80 C87.65066406 79.32453125 87.30132813 78.6490625 86.94140625 77.953125 C86.48636719 77.06109375 86.03132813 76.1690625 85.5625 75.25 C84.88380859 73.92742187 84.88380859 73.92742187 84.19140625 72.578125 C80.78913271 65.21582816 80.89046744 55.94610901 82.6484375 48.109375 C86.42716581 37.83898524 93.49283547 30.26748305 103 25 C112.23714198 20.90593549 122.05842022 20.71721133 131.58984375 23.96484375 C141.19022246 28.08818307 148.89478234 35.31771914 153.21875 44.87890625 C157.02461759 55.21183676 156.76357176 65.50071354 152.28125 75.5859375 C147.95850327 83.73062493 142.45924615 89.19197923 134 93 C132.33806891 93.35619366 130.6716646 93.69271127 129 94 C128.85449707 95.06202637 128.70899414 96.12405273 128.55908203 97.21826172 C126.15889893 114.47572063 123.42178402 131.68089817 120.70166016 148.89013672 C120.00509965 153.29769759 119.31235181 157.70584891 118.62051201 162.11415291 C118.08354363 165.532133 117.54423663 168.94974096 117.00424576 172.36724472 C116.74746813 173.99463005 116.49150645 175.62214435 116.23638535 177.24979019 C115.88252234 179.50562449 115.5254237 181.76092334 115.16748047 184.01611328 C114.96557098 185.29624298 114.7636615 186.57637268 114.55563354 187.89529419 C114 191 114 191 113 194 C114.11375 193.938125 115.2275 193.87625 116.375 193.8125 C127.51401872 193.85179107 137.25851078 199.14638685 145.1875 206.625 C155.10136421 216.98529598 160.16282647 230.11375153 160.10006714 244.39350891 C160.09710632 245.65928772 160.09414551 246.92506653 160.09109497 248.22920227 C160.08277259 249.61935467 160.07437784 251.00950663 160.06591797 252.3996582 C160.0607206 253.87360476 160.05601331 255.34755311 160.05175781 256.82150269 C160.04183869 259.98897754 160.02899712 263.15642236 160.01403427 266.32387733 C159.9909083 271.33815492 159.97764846 276.35242857 159.96633911 281.366745 C159.93295817 295.62337347 159.8913395 309.8799429 159.82861328 324.13647461 C159.79403026 332.01539146 159.77026046 339.89426464 159.75840485 347.77324933 C159.75033108 352.75181347 159.72914581 357.73009077 159.69819999 362.70856249 C159.68212584 365.81411386 159.67878085 368.91958423 159.67897034 372.02517319 C159.67656072 373.45820518 159.66903891 374.89123978 159.65584183 376.32421303 C159.55099603 388.21074086 160.84821574 396.43045112 168.6171875 405.6328125 C177.07428564 414.03445426 186.29540446 417.42439522 198.01660156 417.44042969 C203.95908677 417.28960519 207.66456397 415.97799316 212 412 C212.7425 411.401875 213.485 410.80375 214.25 410.1875 C215.86043304 408.1744587 216.7466575 406.50648787 217.8125 404.1875 C220.56812157 398.41791734 224.73187671 393.82301634 230.5625 391.0625 C233.93389331 390.02043298 236.49855166 389.74379646 240 390 C240.33 387.36 240.66 384.72 241 382 C240.13375 381.6596875 240.13375 381.6596875 239.25 381.3125 C234.91838201 378.78572284 232.27687325 374.78827469 231 370 C230.30512898 363.83149582 231.20025367 357.82208943 232.25 351.75 C232.35916748 351.07670654 232.46833496 350.40341309 232.58081055 349.7097168 C233.67998664 343.87795694 236.15396659 339.95152103 240.1875 335.6875 C247.42277803 331.34633318 255.1708119 333.29158477 263 335 C263.04744071 334.23321238 263.09488142 333.46642475 263.14375973 332.67640114 C263.73101958 324.11032565 264.82444525 315.68639651 266.13305664 307.20458984 C266.35037923 305.77232761 266.56725954 304.33999822 266.78373718 302.90760803 C267.24655912 299.85064345 267.71219268 296.79412589 268.18004036 293.73792648 C268.9210244 288.89562471 269.65395351 284.05212401 270.38560486 279.20840454 C272.33457386 266.31377401 274.29327798 253.42062709 276.25812477 240.52840674 C277.55210895 232.03787945 278.84141972 223.54667196 280.12194532 215.05410349 C280.84695366 210.24827632 281.57925858 205.44363825 282.31720555 200.63978171 C282.77580157 197.64308823 283.22754791 194.64539082 283.67746162 191.64738274 C283.8858498 190.26798325 284.09697918 188.88899435 284.31119919 187.51048851 C285.93956747 177.01711515 286.81285531 167.11917014 284.90625 156.609375 C284.68066406 155.32289063 284.45507812 154.03640625 284.22265625 152.7109375 C283.98254412 151.39048415 283.74165314 150.0701722 283.5 148.75 C283.02391255 146.12097479 282.55701763 143.49073512 282.09375 140.859375 C281.88427734 139.70920898 281.67480469 138.55904297 281.45898438 137.37402344 C280.36977288 129.36716022 281.74112313 124.23847001 284.875 116.95703125 C285.27775146 115.99335129 285.68050293 115.02967133 286.09545898 114.03678894 C287.3853811 110.95700053 288.69208156 107.88468302 290 104.8125 C291.27090851 101.79633663 292.53829453 98.77871013 293.80541992 95.76095581 C294.64096352 93.77264521 295.47835541 91.78511026 296.31762695 89.79837036 C299.50698047 82.2349145 302.5808812 74.62975036 305.57641602 66.98750305 C307.89685537 61.10314463 307.89685537 61.10314463 309 60 C317.99524163 60.05132805 326.37917684 61.56024545 335 64 C336.52759099 76.99891524 337.75913607 90.0122849 338.85986328 103.05395508 C339.12790776 106.22186559 339.40166844 109.38925004 339.67578125 112.55664062 C339.8492991 114.593721 340.02248841 116.6308294 340.1953125 118.66796875 C340.31714401 120.07117622 340.31714401 120.07117622 340.44143677 121.50273132 C341.08963079 129.27064205 341.47762207 135.67594407 338.5625 143.0625 C338.30925209 143.71861613 338.05600418 144.37473227 337.79508209 145.05073071 C336.29445423 148.89647207 334.71366359 152.65193657 332.89758301 156.35993958 C324.91590113 173.2198067 322.78247106 190.76632286 320.27408791 209.046314 C319.64969626 213.54952463 318.99187037 218.04785601 318.33776855 222.54682922 C317.10900856 231.03215934 315.90856295 239.52122579 314.71918821 248.01215631 C313.22991264 258.63458 311.70540826 269.25190067 310.1796875 279.86914062 C309.64507874 283.58995889 309.11065472 287.31080356 308.57653809 291.0316925 C308.3826507 292.38225926 308.3826507 292.38225926 308.1848464 293.7601102 C307.29540433 299.96306503 306.4164352 306.16744884 305.54162598 312.3724823 C305.19529598 314.82157878 304.848744 317.27064372 304.5021019 319.71969604 C304.28540609 321.25507729 304.06971514 322.79060074 303.85509109 324.32627296 C303.56279756 326.41759338 303.26717304 328.50841775 302.9708252 330.59916687 C302.8064521 331.76984553 302.64207901 332.9405242 302.47272491 334.14667797 C302 337 302 337 301 340 C302.30324219 340.14695312 302.30324219 340.14695312 303.6328125 340.296875 C315.76202119 341.87068731 315.76202119 341.87068731 320 346 C325.00139772 353.09977594 324.48305629 360.20917857 323.12890625 368.453125 C323.00386719 369.16984375 322.87882813 369.8865625 322.75 370.625 C322.64042969 371.34945313 322.53085937 372.07390625 322.41796875 372.8203125 C321.07067034 380.64882535 317.22790125 385.32907406 311 390 C310.30390625 390.28101563 309.6078125 390.56203125 308.890625 390.8515625 C306.8017045 391.85615976 306.8017045 391.85615976 306.171875 394.1640625 C306.03265625 394.97617187 305.8934375 395.78828125 305.75 396.625 C305.60046875 397.44226563 305.4509375 398.25953125 305.296875 399.1015625 C305.19890625 399.72804688 305.1009375 400.35453125 305 401 C305.556875 401.07476562 306.11375 401.14953125 306.6875 401.2265625 C315.76945621 402.79135901 321.62646784 407.84506791 327.4609375 414.78515625 C335.89263679 426.91909914 335.25875831 442.67063124 332.92333984 456.62988281 C330.57471542 468.9937971 326.66314785 482.23048415 316 490 C311.81135819 492.62183783 309.01111525 494 304 494 C303.92903862 494.94691711 303.92903862 494.94691711 303.85664368 495.91296387 C303.21823607 503.68500429 302.10008213 511.33542856 300.85546875 519.03125 C300.64225852 520.35680838 300.42906822 521.68236997 300.21589661 523.00793457 C299.77079271 525.76830411 299.32225732 528.52809275 298.87182617 531.28759766 C298.30051196 534.79224786 297.74277427 538.29891483 297.18822765 541.80625153 C296.75366706 544.5392421 296.30930717 547.27057708 295.86239052 550.00157166 C295.5522185 551.91178482 295.25205108 553.8236141 294.95219421 555.73547363 C292.4652863 570.71842686 287.99281547 582.25316187 275.46875 591.49609375 C265.36045743 597.65383527 253.20343612 599.67124717 241.64453125 597.31640625 C230.75158087 594.23879659 220.55169591 588.48554766 214.52734375 578.578125 C204.68457822 559.63869278 210.15567487 539.84727699 213.5 519.8125 C214.14678304 515.88942924 214.7870337 511.9653061 215.42590332 508.04093933 C215.82219252 505.61290878 216.22266612 503.18555658 216.62780762 500.75898743 C216.89808777 499.12028938 216.89808777 499.12028938 217.17382812 497.44848633 C217.33371216 496.49001297 217.49359619 495.53153961 217.6583252 494.54402161 C218.0887399 491.76707637 218.0887399 491.76707637 218 488 C217.29875 488.20496094 216.5975 488.40992188 215.875 488.62109375 C210.28239388 490.20921152 204.8240676 491.64735004 199 492 C198.14277344 492.05285156 197.28554688 492.10570312 196.40234375 492.16015625 C185.61810055 492.49398881 175.04489349 490.97188705 165.24047852 486.4284668 C164.25700943 485.9747319 163.27354034 485.52099701 162.26026917 485.05351257 C161.51438034 484.70585342 160.76849152 484.35819427 160 484 C160.00276538 484.89599537 160.00553076 485.79199074 160.00837994 486.71513748 C160.07472955 508.55037267 160.12432423 530.3855904 160.15543652 552.2209053 C160.17088338 562.78044513 160.19193111 573.33991753 160.22631836 583.89941406 C160.25628758 593.10665584 160.27559084 602.31384876 160.28226548 611.52113795 C160.28616501 616.39307249 160.29528378 621.26486729 160.31719017 626.1367569 C160.33767431 630.72990748 160.34380987 635.32286184 160.33932304 639.91605377 C160.34014294 641.59453399 160.34603713 643.27302132 160.35761642 644.95146179 C160.47167694 662.34995956 157.39395529 678.11331516 145 691.2265625 C133.77323872 701.18154223 120.8699504 705.19353938 106.0625 705.0625 C105.37865234 705.05798828 104.69480469 705.05347656 103.99023438 705.04882812 C102.32678396 705.0371956 100.6633795 705.01926694 99 705 C99.25523437 706.64742187 99.25523437 706.64742187 99.515625 708.328125 C102.20014818 726.15659464 104.07241568 744.07744176 106 762 C107.10303467 761.99081543 108.20606934 761.98163086 109.3425293 761.97216797 C119.75190463 762.05137956 129.26311352 767.32155872 136.8125 774.25 C145.12959542 783.15556915 147.50170075 794.42861825 147.24609375 806.26171875 C146.92313007 809.85533055 146.1707818 812.10562426 144 815 C139.29379284 818.85676457 135.5253805 819.57656597 129.61132812 819.50170898 C128.79103622 819.50711197 127.97074432 819.51251495 127.12559509 819.51808167 C124.42710756 819.53053969 121.72969309 819.51409783 119.03125 819.49609375 C117.14847762 819.49624881 115.26570492 819.49773889 113.38293457 819.50050354 C109.44215742 819.50188622 105.5017448 819.48935135 101.56103516 819.46655273 C96.51709878 819.43816857 91.47376786 819.44090721 86.42978668 819.45364285 C82.54350642 819.46060752 78.65736538 819.45280172 74.77110291 819.44038582 C72.91162144 819.43587899 71.052125 819.43552779 69.19264221 819.43945122 C66.59100866 819.44237118 63.9902009 819.42581931 61.38867188 819.40405273 C60.62485703 819.40855438 59.86104218 819.41305603 59.07408142 819.41769409 C53.37182877 819.33867858 49.51025252 817.89121938 44.98828125 814.484375 C41.07629413 810.43560511 39.48678517 806.93531872 38.46166992 801.40258789 C38.34049647 800.75272195 38.21932302 800.10285601 38.09447765 799.43329716 C36.55565788 790.93393004 35.43507897 782.3692095 34.30078125 773.80859375 C34.05875561 772.00590428 33.81641449 770.20325714 33.57377625 768.40065002 C33.07074544 764.65544587 32.57108008 760.90981347 32.07397461 757.16381836 C31.43782745 752.37172141 30.79372883 747.58073283 30.14722919 742.79002285 C29.64758325 739.08177954 29.15178779 735.37302941 28.65718651 731.66411018 C28.42107188 729.89657814 28.18384371 728.12919445 27.94545937 726.36196709 C27.61382541 723.89862744 27.28731405 721.43466097 26.9621582 718.97045898 C26.86401321 718.24883575 26.76586823 717.52721252 26.66474915 716.78372192 C26.14132179 712.76973323 26 709.08579653 26 705 C-6.34 705 -38.68 705 -72 705 C-74.45431288 726.26640836 -74.45431288 726.26640836 -76.90527344 747.53320312 C-77.66117104 754.08571885 -78.42681117 760.63703858 -79.1999855 767.18753815 C-79.74015338 771.76812041 -80.26934205 776.34981528 -80.79133224 780.93250275 C-81.13059888 783.88962058 -81.47945436 786.8455518 -81.83081818 789.80125427 C-81.99366088 791.18731871 -82.15263186 792.57384438 -82.30742645 793.96083069 C-82.52158154 795.87418219 -82.7511918 797.78578461 -82.98144531 799.69726562 C-83.16867157 801.31260193 -83.16867157 801.31260193 -83.35968018 802.96057129 C-84.9350818 810.43858576 -88.55261991 814.03784987 -94.68229675 818.1204834 C-98.11681436 819.4238061 -101.52087061 819.31173294 -105.14575195 819.32226562 C-105.96414551 819.33219543 -106.78253906 819.34212524 -107.62573242 819.35235596 C-110.32994974 819.38153685 -113.03393243 819.39519235 -115.73828125 819.40625 C-117.62151595 819.41775817 -119.50475061 819.42927358 -121.38798523 819.4407959 C-125.336386 819.46179818 -129.28470554 819.47349499 -133.2331543 819.48046875 C-138.28406131 819.49143441 -143.33388892 819.53948549 -148.38445759 819.59641266 C-152.27505088 819.63372566 -156.16538572 819.64407971 -160.05614281 819.6471405 C-161.9176543 819.65318133 -163.7791619 819.66919759 -165.64049721 819.69551086 C-168.24984643 819.72976525 -170.85657939 819.72584456 -173.46606445 819.71289062 C-174.22942612 819.73132019 -174.99278778 819.74974976 -175.77928162 819.76873779 C-181.07163281 819.68675709 -183.79194388 818.14539622 -187.67111492 814.58040619 C-191.97762377 809.45879459 -190.54234091 799.37361404 -190 793 C-187.8243394 782.54439679 -181.63987972 774.13741984 -173 768 C-166.44992708 763.99351676 -159.72916595 761.83981003 -152 762 C-151.9498877 761.39639648 -151.89977539 760.79279297 -151.84814453 760.17089844 C-149.98528635 738.01091203 -149.98528635 738.01091203 -148 728 C-148.66 728.33 -149.32 728.66 -150 729 C-166.9159661 729.95203698 -184.47708627 729.95739251 -201 726 C-201.84030762 725.80132324 -202.68061523 725.60264648 -203.54638672 725.39794922 C-213.93010331 722.86139631 -223.52919146 719.56631595 -233.10986328 714.83251953 C-252.44554419 705.30539448 -272.40509199 704.59648423 -293.5 705 C-311.61587692 705.34653112 -328.20961766 704.85168364 -345.5 698.875 C-346.37454834 698.577146 -347.24909668 698.27929199 -348.15014648 697.97241211 C-370.70615262 689.98148064 -389.81276328 675.18934056 -408 660 C-409.09248047 659.09507812 -409.09248047 659.09507812 -410.20703125 658.171875 C-414.87072368 654.25855263 -414.87072368 654.25855263 -416 652 C-416.46159052 645.65313029 -416.46159052 645.65313029 -414.83447266 643.35083008 C-412.39290989 641.55296386 -410.39055437 641.28636702 -407.3984375 640.82421875 C-405.71584839 640.5471106 -405.71584839 640.5471106 -403.99926758 640.2644043 C-402.80325928 640.07402588 -401.60725098 639.88364746 -400.375 639.6875 C-353.68522895 631.60379681 -313.37346936 600.10376762 -285 563 C-284.2059375 561.9996875 -283.411875 560.999375 -282.59375 559.96875 C-277.98814015 554.13967743 -273.64567135 548.16516338 -269.5 542 C-269.07855713 541.37706055 -268.65711426 540.75412109 -268.22290039 540.11230469 C-266.06119626 536.84738297 -264.29001086 533.70177029 -263 530 C-263.61089478 529.4423999 -263.61089478 529.4423999 -264.23413086 528.87353516 C-283.19305919 511.51658145 -303.49155392 491.35734472 -305.25 464.12890625 C-305.97903758 444.99600939 -298.71978986 430.98792601 -286 417 C-274.00487776 404.48923121 -259.58013391 394.94528788 -245.1875 385.4375 C-244.42010183 384.92062433 -243.65270367 384.40374866 -242.86205101 383.8712101 C-238.51784901 381.0182068 -234.34558406 378.62975316 -229.48745728 376.76229858 C-223.61725155 374.36442104 -218.23819601 371.8417811 -214 367 C-210.50537457 358.62960737 -211.41837668 349.08803416 -211.76759291 340.19546175 C-211.88310645 336.65642931 -211.87509534 333.11760145 -211.88027954 329.57699585 C-211.90792502 322.87273154 -212.03951746 316.17494901 -212.21184313 309.47300279 C-212.45898092 299.67242875 -212.54398811 289.8701747 -212.63515663 280.06712914 C-212.64898996 278.60956111 -212.66290725 277.15199389 -212.6769104 275.69442749 C-212.68361303 274.98163364 -212.69031566 274.26883979 -212.6972214 273.53444612 C-212.74004724 269.34264498 -212.81063122 265.15251346 -212.90792251 260.9616282 C-212.95305712 258.97495189 -212.99047794 256.98810517 -213.02778625 255.00126648 C-213.07335694 252.5989262 -213.13072938 250.19676162 -213.20344543 247.79508972 C-213.44891204 232.80913482 -210.21014142 219.27598913 -199.75 208.1875 C-190.50718856 199.57522977 -178.8734612 193.76770105 -166 194 C-166.1827095 193.06198547 -166.36541901 192.12397095 -166.55366516 191.15753174 C-168.59094482 180.5719268 -170.30676478 169.95468819 -171.91796875 159.296875 C-172.18256782 157.55810204 -172.44732623 155.81935332 -172.7122345 154.08062744 C-173.26106109 150.47410894 -173.80789675 146.86729595 -174.35327148 143.26025391 C-175.05206437 138.63972081 -175.75611051 134.02000543 -176.46161938 129.40049362 C-177.00677686 125.8269451 -177.54912897 122.25297518 -178.09063148 118.67887115 C-178.3493059 116.9738958 -178.60886858 115.26905497 -178.86934471 113.56435394 C-179.23111229 111.1940424 -179.58907973 108.82318729 -179.94604492 106.45214844 C-180.05354065 105.75295792 -180.16103638 105.0537674 -180.27178955 104.33338928 C-180.74577479 101.15943432 -181 98.22262582 -181 95 C-181.72445312 94.88785156 -182.44890625 94.77570313 -183.1953125 94.66015625 C-192.36258991 92.50239875 -199.34435945 85.78714257 -204.24609375 78.02734375 C-208.99181045 69.28340419 -210.64478998 58.85017647 -208.3125 49.13671875 C-205.04861901 39.30427727 -198.99252195 30.70959216 -189.6953125 25.77734375 C-179.92115284 21.30686745 -169.5091634 20.12488338 -159.125 23.625 C-149.43275945 27.68948797 -141.17794528 34.89891309 -136.5625 44.4375 C-133.56636154 52.81631145 -133.24081624 64.01719999 -136.8125 72.25 C-137.5056339 73.52033437 -138.23128999 74.77392131 -139 76 C-139.5775 77.010625 -140.155 78.02125 -140.75 79.0625 C-141.1625 79.701875 -141.575 80.34125 -142 81 C-141.41387939 81.27602051 -140.82775879 81.55204102 -140.22387695 81.83642578 C-138.09681959 82.94934217 -136.31839218 84.15698386 -134.41796875 85.6171875 C-133.74113037 86.13547119 -133.06429199 86.65375488 -132.36694336 87.18774414 C-131.64772705 87.74453857 -130.92851074 88.30133301 -130.1875 88.875 C-129.43412354 89.45435303 -128.68074707 90.03370605 -127.90454102 90.63061523 C-122.42260144 94.86072351 -117.0147401 99.17767558 -111.625 103.52416992 C-106.87915145 107.33517251 -102.0550452 111.03341865 -97.1875 114.6875 C-96.49906006 115.20513916 -95.81062012 115.72277832 -95.10131836 116.25610352 C-91.68824498 118.84398993 -91.68824498 118.84398993 -88 121 C-87.65473267 119.99598145 -87.65473267 119.99598145 -87.30249023 118.97167969 C-85.63819626 115.17453138 -83.45738261 111.89418123 -81.16015625 108.453125 C-80.67856552 107.72365662 -80.19697479 106.99418823 -79.70079041 106.24261475 C-78.15891843 103.90891527 -76.61095809 101.5793334 -75.0625 99.25 C-73.5537605 96.97218972 -72.04632199 94.69352323 -70.53915405 92.41467285 C-69.53820825 90.90124069 -68.53676536 89.38813718 -67.53482056 87.87536621 C-62.29551472 79.95635857 -57.14197001 71.98243503 -52 64 C-52.40774658 63.46238037 -52.81549316 62.92476074 -53.2355957 62.37084961 C-53.77273193 61.65936768 -54.30986816 60.94788574 -54.86328125 60.21484375 C-55.39477783 59.51222412 -55.92627441 58.80960449 -56.47387695 58.08569336 C-63.71827897 48.18504924 -67.16029596 36.86036723 -65.4375 24.625 C-62.81528741 12.47370113 -56.18733718 2.58987028 -45.89453125 -4.4375 C-30.70756103 -12.68272136 -13.5835408 -9.80415956 0 0 Z " fill="#0E3A5C" transform="translate(484,26)"/>
  <path d="M0 0 C0.88643873 -0.00445784 1.77287746 -0.00891569 2.68617797 -0.01350862 C3.66096547 -0.01332426 4.63575298 -0.01313989 5.6400795 -0.01294994 C7.19234942 -0.01846498 7.19234942 -0.01846498 8.77597833 -0.02409142 C12.26048917 -0.03514738 15.74497022 -0.03897534 19.229496 -0.04278088 C21.72101308 -0.04904403 24.21252923 -0.0556907 26.70404434 -0.0626936 C34.19269446 -0.08193384 41.68133667 -0.09252335 49.17000425 -0.10142139 C52.69663352 -0.10580488 56.22326129 -0.11117151 59.74988937 -0.11641026 C71.47317951 -0.13342165 83.19646871 -0.14791601 94.91976929 -0.155159 C97.96181362 -0.15706888 101.00385795 -0.15898922 104.04590225 -0.16094494 C104.80198573 -0.16142868 105.5580692 -0.16191242 106.3370643 -0.16241082 C118.586259 -0.17071187 130.83535608 -0.19605043 143.08450815 -0.22852562 C155.6605469 -0.26159564 168.23653603 -0.27960768 180.81261849 -0.28280324 C187.87361344 -0.28496834 194.93446598 -0.2937169 201.99541855 -0.31926441 C208.63725141 -0.34324003 215.27887399 -0.34679744 221.92075729 -0.33650303 C224.35923998 -0.33600641 226.79773508 -0.34236365 229.23617935 -0.35605907 C232.56415578 -0.37370552 235.89120457 -0.3667067 239.21918106 -0.35352612 C240.18504568 -0.36449536 241.1509103 -0.37546461 242.14604354 -0.38676625 C248.95518128 -0.32161913 253.29315617 1.02504949 258.42578506 5.73187733 C262.04638472 10.41368722 262.80843949 13.39474537 262.81781864 19.22821045 C262.82227649 20.51113958 262.82673433 21.7940687 262.83132726 23.11587447 C262.83123796 24.5478679 262.8310481 25.97986133 262.83076859 27.41185474 C262.8340671 28.92666986 262.83779265 30.4414841 262.84191006 31.95629722 C262.85193954 36.12985475 262.85564838 40.30339791 262.85829937 44.47696579 C262.86219961 48.97404682 262.87177813 53.47111644 262.88051224 57.96819019 C262.90028446 68.83395921 262.91034376 79.69972916 262.91924003 90.56551167 C262.92362164 95.68044945 262.92898877 100.79538619 262.9342289 105.91032314 C262.95124184 122.91016106 262.96573652 139.90999832 262.97297764 156.90984344 C262.97488758 161.32244524 262.97680791 165.73504703 262.97876358 170.14764881 C262.97924732 171.24440006 262.97973106 172.34115131 262.98022946 173.47113744 C262.98853166 191.24205564 263.01387151 209.01290656 263.04634426 226.78379538 C263.07940026 245.02233049 263.09742507 263.26083139 263.10062188 281.49939662 C263.10278831 291.7422991 263.11155651 301.98510348 263.13708305 312.2279768 C263.1587701 320.95042815 263.1668503 329.67275757 263.15711627 338.39523282 C263.1525658 342.8458507 263.15450113 347.29621691 263.17387772 351.74680042 C263.19146892 355.82249128 263.19054474 359.89774611 263.17498042 363.97344134 C263.17259819 365.44657164 263.17695985 366.91973182 263.18880907 368.39281639 C263.24904967 376.37751303 263.14776878 382.36724457 258.68359756 389.13422108 C252.53270701 395.12739649 246.70224853 395.42789125 238.52457047 395.40164661 C237.49209855 395.40617773 236.45962664 395.41070884 235.39586771 395.41537726 C231.93134823 395.4280518 228.46698534 395.4263989 225.00244522 395.42474842 C222.52048413 395.43073172 220.03852491 395.43753681 217.55656815 395.44510365 C211.51161633 395.46095256 205.46672623 395.46721286 199.42175938 395.4683284 C194.50774504 395.46927915 189.59374355 395.47339076 184.67973328 395.47972965 C170.74433245 395.49733971 156.80896241 395.50656882 142.87355037 395.5050687 C141.74698467 395.50494884 141.74698467 395.50494884 140.59766006 395.50482655 C139.46971728 395.5047039 139.46971728 395.5047039 138.31898777 395.50457878 C126.13134587 395.50376581 113.94382753 395.52290682 101.75622137 395.55110328 C89.2388731 395.57983388 76.72158509 395.5936435 64.20420301 395.59191573 C57.17789896 395.59125191 50.15172447 395.59674038 43.12545013 395.61827183 C36.51805095 395.63839012 29.91087872 395.63780814 23.30344963 395.62323856 C20.87787032 395.62114405 18.45227405 395.6258894 16.02672386 395.63795948 C12.71635635 395.65336621 9.40693861 395.64413311 6.09659195 395.6286974 C5.13598252 395.63898452 4.17537309 395.64927165 3.18565428 395.65987051 C-2.84537402 395.59769402 -6.36960747 394.63966808 -11.31640244 391.13422108 C-16.07012464 386.12354091 -17.56497898 381.64976991 -17.57367134 374.80975342 C-17.58012023 373.52632559 -17.58656913 372.24289776 -17.59321344 370.92057818 C-17.59027123 369.49839914 -17.5871358 368.07622048 -17.58382797 366.65404224 C-17.58756444 365.14162447 -17.59216594 363.62920862 -17.59755862 362.11679584 C-17.60980456 357.95913778 -17.60952628 353.8015601 -17.60716987 349.64388812 C-17.6067621 345.1604692 -17.61779698 340.67707619 -17.627285 336.19366932 C-17.64390471 327.40916858 -17.64939499 318.62469467 -17.65050976 309.84017953 C-17.65145977 302.70029797 -17.65556773 295.56042528 -17.66191101 288.42054653 C-17.67952606 268.18173516 -17.68874947 247.942945 -17.68725006 227.7041259 C-17.68717015 226.61282733 -17.68709024 225.52152876 -17.6870079 224.39716053 C-17.68692614 223.3045309 -17.68684438 222.21190127 -17.68676014 221.08616165 C-17.68594717 203.37679828 -17.70508708 185.66751994 -17.73328464 167.95818117 C-17.76200315 149.77833867 -17.7758255 131.59853766 -17.77409708 113.41867191 C-17.77343283 103.21045772 -17.77894082 93.00233268 -17.80045319 82.79413891 C-17.81865139 74.10283726 -17.82302352 65.41166517 -17.80943434 56.72035273 C-17.80289781 52.28592769 -17.80281213 47.8517513 -17.82014084 43.41734982 C-17.83584645 39.35653357 -17.83303385 35.29616365 -17.81557257 31.23535845 C-17.81249712 29.76767479 -17.81615567 28.29995802 -17.82729273 26.83231338 C-17.93983969 10.9465622 -17.93983969 10.9465622 -11.83371484 4.59095401 C-8.024895 1.22955362 -4.9896805 0.01164065 0 0 Z " fill="#A2C8E0" transform="translate(334.31640243530273,280.86577892303467)"/>
  <path d="M0 0 C1.16752686 -0.00382555 2.33505371 -0.00765109 3.53796017 -0.01159257 C6.76566665 -0.02010703 9.9932272 -0.01969606 13.22093749 -0.01541197 C16.70705719 -0.01294098 20.19315034 -0.02196356 23.67926025 -0.02944946 C30.50399232 -0.04218821 37.32868503 -0.04399118 44.15342699 -0.0416492 C49.70190993 -0.03986493 55.25038094 -0.04161803 60.79886246 -0.04587364 C61.98417203 -0.04676643 61.98417203 -0.04676643 63.19342724 -0.04767724 C64.79882692 -0.04888902 66.40422661 -0.05010315 68.00962628 -0.05131962 C83.05972639 -0.06219203 98.10980408 -0.06003411 113.15990545 -0.05393478 C126.92064343 -0.04876613 140.68131061 -0.06002021 154.44203459 -0.07903299 C168.5798915 -0.09841673 182.71771493 -0.10666644 196.85558522 -0.10290974 C204.78956948 -0.10099848 212.72349348 -0.10347794 220.65746689 -0.11762428 C227.41192818 -0.12954589 234.16629213 -0.13093426 240.92075478 -0.11883412 C244.36493487 -0.11295082 247.80893699 -0.1118306 251.25310516 -0.12383652 C254.99165557 -0.13428481 258.72972848 -0.1262179 262.46826172 -0.11352539 C264.09099292 -0.12458682 264.09099292 -0.12458682 265.74650657 -0.13587171 C274.6107866 -0.07261421 282.36632265 1.50942311 289.3611145 7.26069641 C298.54612733 17.36871297 298.7987758 27.36224315 298.74879456 40.32804871 C298.75296932 42.08499464 298.75844763 43.84193787 298.76511437 45.59887612 C298.77956897 50.41861947 298.77532417 55.23819182 298.76794755 60.05794454 C298.76321823 65.25915079 298.77572367 70.46031992 298.78596497 75.66151428 C298.80316301 85.84798479 298.80399087 96.03439364 298.79875206 106.22087489 C298.79471094 114.50054431 298.79615324 122.7801955 298.80150032 131.05986404 C298.80224874 132.23819678 298.80299716 133.41652952 298.80376827 134.63056932 C298.80529974 137.02434174 298.80683809 139.41811415 298.80838323 141.81188656 C298.82211196 164.26149807 298.816668 186.71107473 298.80519802 209.16068543 C298.79526567 229.6976104 298.80820571 250.23444526 298.83213221 270.77135633 C298.85651631 291.85995869 298.86613275 312.94851907 298.85947949 334.03713524 C298.85598568 345.87626841 298.85822998 357.71533229 298.87573051 369.5544548 C298.89044385 379.63304977 298.89109925 389.71152665 298.8736596 399.79011928 C298.86514007 404.93161423 298.86302345 410.07289816 298.87831116 415.21438217 C298.89213964 419.92343407 298.88741864 424.63209378 298.86807192 429.34112288 C298.86430597 431.04226057 298.86725103 432.74342954 298.87768357 434.44453941 C298.94653675 446.53374934 297.90152263 456.39161878 289.2986145 465.56929016 C284.24110114 469.98441775 278.18764161 472.38257047 271.50089741 472.39212418 C270.49315653 472.39596532 269.48541566 472.39980647 268.44713718 472.40376401 C267.3368486 472.40289753 266.22656003 472.40203104 265.08262634 472.40113831 C263.31702827 472.40559499 263.31702827 472.40559499 261.51576155 472.41014171 C258.24292128 472.41732938 254.97011296 472.4200016 251.69726598 472.42073917 C248.16951939 472.42258876 244.6417842 472.43013568 241.11404419 472.43687439 C233.39699022 472.45046301 225.67994145 472.45648344 217.96287751 472.46088505 C213.14438088 472.46364695 208.32588625 472.46788424 203.50739098 472.47238922 C190.16708025 472.48458328 176.82677114 472.49488187 163.48645496 472.49826431 C162.20542228 472.49859366 162.20542228 472.49859366 160.89851014 472.49892966 C160.04243815 472.49914794 159.18636615 472.49936622 158.30435258 472.49959111 C156.56961111 472.50003458 154.83486964 472.50048114 153.10012817 472.50093079 C152.23963549 472.50115222 151.37914281 472.50137365 150.49257459 472.50160179 C136.55308137 472.50554882 122.61364045 472.52299933 108.67416743 472.54629031 C94.3635547 472.5700084 80.0529682 472.5824664 65.7423355 472.58363223 C57.70715499 472.58454881 49.67204261 472.59029666 41.63688087 472.60845184 C34.7937343 472.62385911 27.95067689 472.62896967 21.10751627 472.62071374 C17.61690282 472.61680924 14.12646892 472.61772682 10.63587761 472.63177109 C6.84860379 472.64444572 3.0617913 472.63863752 -0.72547913 472.62818909 C-2.37418158 472.64027369 -2.37418158 472.64027369 -4.05619115 472.65260243 C-13.85606252 472.58933743 -21.46295964 470.13121539 -28.6388855 463.26069641 C-36.90847802 453.5898716 -35.51229976 441.34527706 -35.4357605 429.40913391 C-35.43980837 427.18196736 -35.44563656 424.95480341 -35.45315552 422.72764587 C-35.46196879 418.0759693 -35.44924679 413.42498716 -35.42111206 408.77339172 C-35.38688829 402.8271136 -35.40665408 396.88245826 -35.44254684 390.93623924 C-35.46427964 386.34291971 -35.4573048 381.74998189 -35.44178009 377.15665054 C-35.43779383 374.96471079 -35.44263207 372.77273575 -35.45665741 370.58083725 C-35.47198766 367.51274669 -35.44854862 364.44724743 -35.41525269 361.37934875 C-35.42739807 360.48456314 -35.43954346 359.58977753 -35.45205688 358.6678772 C-35.33063138 352.59403615 -33.71456086 349.02396814 -30.06332779 344.17736244 C-28.27328355 341.76875873 -27.27848648 339.34602796 -26.3263855 336.51069641 C-26.02087769 335.62897766 -25.71536987 334.74725891 -25.40060425 333.83882141 C-21.77108477 321.55429396 -23.3183717 309.64822447 -29.1701355 298.28804016 C-31.11155164 294.98097099 -32.9215659 291.97801601 -35.6388855 289.26069641 C-35.89188516 287.33218104 -35.89188516 287.33218104 -35.8961544 284.92234135 C-35.9026033 284.00552651 -35.90905219 283.08871166 -35.9156965 282.14411455 C-35.9125993 281.1302332 -35.90950209 280.11635185 -35.90631104 279.07174683 C-35.9131077 277.46373865 -35.9131077 277.46373865 -35.92004168 275.82324547 C-35.93277018 272.20673105 -35.93105985 268.59036561 -35.92941284 264.97383118 C-35.93539307 262.39042973 -35.94219743 259.80703008 -35.94976807 257.22363281 C-35.96640748 250.91825502 -35.97187906 244.61291461 -35.97299282 238.3075167 C-35.97394254 233.179411 -35.97804907 228.05131766 -35.98439407 222.92321587 C-36.00201972 208.38164069 -36.01123166 193.84009507 -36.00973313 179.29850913 C-36.00965321 178.51396306 -36.0095733 177.72941699 -36.00949097 176.9210968 C-36.00940921 176.13559092 -36.00932744 175.35008504 -36.00924321 174.54077595 C-36.00843142 161.82862573 -36.02753833 149.11659432 -36.0557677 136.40447844 C-36.08452954 123.34932028 -36.09830597 110.29421998 -36.09658015 97.23902935 C-36.09591706 89.91074199 -36.10137278 82.58257893 -36.12293625 75.25432014 C-36.1431054 68.35555419 -36.14244043 61.45705424 -36.12790298 54.55827522 C-36.1258138 52.02956255 -36.13052223 49.50083347 -36.1426239 46.9721489 C-36.15810696 43.51195926 -36.14874661 40.05266965 -36.13336182 36.59249878 C-36.14364894 35.59869392 -36.15393607 34.60488907 -36.16453493 33.58096892 C-36.06735197 23.64579956 -33.38848544 15.15496103 -26.427948 7.91304016 C-18.32969099 0.43364559 -10.50240909 -0.03653931 0 0 Z M-4.381073 48.07710266 C-4.94181519 48.94141907 -4.94181519 48.94141907 -5.5138855 49.82319641 C-5.90318237 50.40198547 -6.29247925 50.98077454 -6.693573 51.57710266 C-8.72920324 55.2025433 -8.7665446 58.26891973 -8.77310658 62.33906841 C-8.77756442 63.61851414 -8.78202226 64.89795987 -8.78661519 66.21617669 C-8.78652589 67.64423987 -8.78633603 69.07230305 -8.78605652 70.50036621 C-8.78935505 72.01105653 -8.79308059 73.52174597 -8.797198 75.03243428 C-8.80722739 79.19459025 -8.8109363 83.35673179 -8.81358731 87.51889813 C-8.81748757 92.00370913 -8.82706609 96.48850868 -8.83580017 100.97331238 C-8.85557232 111.80941853 -8.86563169 122.64552563 -8.87452796 133.48164532 C-8.87890958 138.58263632 -8.88427671 143.68362629 -8.88951683 148.78461647 C-8.90652977 165.73813124 -8.92102445 182.69164536 -8.92826557 199.64516735 C-8.93017551 204.04573759 -8.93209584 208.44630783 -8.93405151 212.84687805 C-8.93453525 213.94063869 -8.93501899 215.03439932 -8.93551739 216.16130421 C-8.94381958 233.88372355 -8.96915939 251.60607543 -9.00163219 269.32846531 C-9.03468834 287.51727987 -9.05271302 305.70606014 -9.05590981 323.89490491 C-9.05807623 334.10986183 -9.06684424 344.32472038 -9.09237099 354.53964806 C-9.11405823 363.23831092 -9.12213814 371.93685153 -9.1124042 380.63553836 C-9.10785379 385.07400491 -9.10978874 389.51221909 -9.12916565 393.95065117 C-9.14675726 398.01523988 -9.14583235 402.07939138 -9.13026836 406.14398447 C-9.12788618 407.61307713 -9.13224746 409.08219975 -9.14409701 410.55124655 C-9.28443058 422.68614173 -9.28443058 422.68614173 -3.15617162 432.80391091 C0.64519485 436.1589158 3.67802811 437.3832424 8.65910625 437.39491749 C9.54144489 437.39937533 10.42378353 437.40383318 11.33285969 437.40842611 C12.30307413 437.40824174 13.27328857 437.40805738 14.27290344 437.40786743 C15.81798969 437.41338246 15.81798969 437.41338246 17.39428979 437.41900891 C20.86264715 437.43006475 24.33097457 437.43389282 27.79934692 437.43769836 C30.2793894 437.44396157 32.75943094 437.45060824 35.23947144 437.45761108 C42.6940146 437.47685193 50.14854982 437.48744133 57.60311052 437.49633887 C61.11416984 437.50072262 64.62522765 437.50608922 68.13628578 437.51132774 C79.80896154 437.52833989 91.48163637 437.54283374 103.15432262 437.55007648 C106.18329558 437.55198636 109.21226853 437.55390669 112.24124146 437.55586243 C112.994072 437.55634617 113.74690255 437.55682991 114.52254615 437.55732831 C126.71610006 437.56562743 138.90955582 437.59096239 151.10306688 437.6234431 C163.62373986 437.65652319 176.14436298 437.67452612 188.66507989 437.67772073 C195.69424895 437.67988499 202.72327491 437.68862124 209.75240135 437.7141819 C216.36551038 437.73817428 222.97840826 437.7417086 229.59156799 437.73142052 C232.01834278 437.73092427 234.4451301 437.7372707 236.87186623 437.75097656 C240.18635615 437.76864834 243.49991699 437.76161162 246.81440735 437.7484436 C247.77346818 437.75941285 248.732529 437.7703821 249.72065228 437.78168374 C255.75782321 437.72382622 260.31908287 436.69023905 265.3611145 433.26069641 C270.16606668 428.32929813 271.60977445 423.71407831 271.61838341 416.91781807 C271.62805675 414.98652619 271.62805675 414.98652619 271.63792551 413.0162183 C271.6349833 411.58942 271.63184787 410.16262209 271.62854004 408.73582458 C271.63227648 407.21856932 271.63687798 405.70131598 271.64227068 404.1840657 C271.65451677 400.01307553 271.65423833 395.84216547 271.65188193 391.67116141 C271.65147418 387.1734466 271.66250893 382.67575762 271.67199707 378.17805481 C271.68861653 369.36581561 271.69410703 360.55360316 271.69522183 351.74134959 C271.69617179 344.57952963 271.7002795 337.4177185 271.70662308 330.25590134 C271.72423756 309.95668678 271.73346155 289.65749339 271.73196213 269.35827114 C271.73188222 268.26372284 271.7318023 267.16917455 271.73171997 266.04145813 C271.73159733 264.3976343 271.73159733 264.3976343 271.73147221 262.7206019 C271.7306591 244.95559761 271.74980241 227.19067807 271.7779967 209.4256983 C271.80670926 191.19049004 271.82053792 172.95532314 271.81880915 154.7200917 C271.81814472 144.48005144 271.82366043 134.24010003 271.84516525 124.00008011 C271.86335556 115.28239957 271.86774205 106.56484817 271.85414641 97.8471569 C271.84760606 93.39867918 271.84753794 88.95044938 271.86485291 84.50199509 C271.88054156 80.42951213 271.87776337 76.35747451 271.86028464 72.28500269 C271.85720545 70.81195329 271.86088172 69.33887099 271.87200479 67.86586036 C271.93386007 59.09330177 271.86082632 53.16747263 265.76345825 46.51850891 C261.7859023 43.44253231 259.03446644 42.13811615 254.04471207 42.12647533 C253.15827334 42.12201749 252.27183461 42.11755965 251.3585341 42.11296672 C249.89635284 42.11324326 249.89635284 42.11324326 248.40463257 42.11352539 C247.36978595 42.1098487 246.33493934 42.10617201 245.26873374 42.10238391 C241.78422289 42.09132795 238.29974184 42.0875 234.81521606 42.08369446 C232.32369898 42.0774313 229.83218284 42.07078464 227.34066772 42.06378174 C219.8520176 42.0445415 212.3633754 42.03395199 204.87470782 42.02505395 C201.34807855 42.02067045 197.82145078 42.01530382 194.29482269 42.01006508 C182.57153256 41.99305369 170.84824336 41.97855933 159.12494278 41.97131634 C156.08289845 41.96940645 153.04085412 41.96748612 149.99880981 41.9655304 C149.24272634 41.96504666 148.48664287 41.96456292 147.70764777 41.96406452 C135.45845306 41.95576346 123.20935599 41.93042491 110.96020392 41.89794972 C98.38416517 41.86487969 85.80817604 41.84686765 73.23209357 41.8436721 C66.17109863 41.841507 59.11024608 41.83275843 52.04929352 41.80721092 C45.40746066 41.7832353 38.76583807 41.77967789 32.12395477 41.78997231 C29.68547209 41.79046892 27.24697699 41.78411169 24.80853271 41.77041626 C21.48055628 41.75276982 18.1535075 41.75976863 14.82553101 41.77294922 C13.85966639 41.76197997 12.89380177 41.75101073 11.89866853 41.73970908 C5.14059637 41.80436763 0.46187743 43.0278382 -4.381073 48.07710266 Z " fill="#225681" transform="translate(325.6388854980469,238.7393035888672)"/>
  <path d="M0 0 C2.61279297 0.57446289 2.61279297 0.57446289 4.75 2.96679688 C5.4497998 4.0735376 6.14959961 5.18027832 6.87060547 6.32055664 C7.25513382 6.91771484 7.63966217 7.51487305 8.0358429 8.13012695 C9.28650513 10.08065281 10.51183494 12.04583518 11.73779297 14.01196289 C12.60074878 15.36665001 13.46542186 16.72024469 14.33178711 18.07275391 C16.42072686 21.34052487 18.49195992 24.6190503 20.55755615 27.90161133 C22.69453396 31.28933114 24.87114381 34.65128817 27.05029297 38.01196289 C27.44361816 38.62177002 27.83694336 39.23157715 28.2421875 39.85986328 C32.68656521 46.73270898 37.20768322 53.55527578 41.73513794 60.37356567 C42.64782299 61.74883039 43.55935781 63.12485919 44.46969604 64.50167847 C45.75349382 66.4423428 47.04189429 68.37987083 48.33154297 70.31665039 C48.71858902 70.90337021 49.10563507 71.49009003 49.50440979 72.09458923 C53.25906391 77.82597815 53.25906391 77.82597815 59.23779297 80.63696289 C66.03193264 81.19183818 70.47430182 76.37673235 75.37060547 72.25024414 C76.93327766 70.91684234 78.49200325 69.57925855 80.0456543 68.23535156 C85.8413348 63.26915366 91.95625616 58.75597848 98.08422852 54.21142578 C103.39008851 50.26761611 108.60153438 46.23634008 113.73779297 42.07446289 C122.51730439 35.01768386 122.51730439 35.01768386 126.17529297 32.26196289 C126.89845703 31.70895508 127.62162109 31.15594727 128.36669922 30.58618164 C131.39911745 29.22027499 133.41162368 29.94395853 136.61279297 30.57446289 C134.49906242 46.52361129 132.1450391 62.42686808 129.67529297 78.32446289 C129.33722063 80.50933061 128.99932967 82.69422641 128.66162109 84.87915039 C128.17794371 88.00780615 127.69408806 91.1364321 127.20875549 94.26483154 C125.33148518 106.3662227 123.47491202 118.47068903 121.61279297 130.57446289 C41.75279297 130.57446289 -38.10720703 130.57446289 -120.38720703 130.57446289 C-123.83437665 113.33861479 -123.83437665 113.33861479 -124.8293457 106.48364258 C-124.94682663 105.69623184 -125.06430756 104.90882111 -125.18534851 104.09754944 C-125.56232488 101.56434445 -125.93391995 99.03038698 -126.30517578 96.49633789 C-126.56966042 94.70888328 -126.83442091 92.92146946 -127.09944153 91.13409424 C-127.64883158 87.4233199 -128.19567042 83.71218218 -128.74047852 80.00073242 C-129.43909743 75.24218005 -130.1430987 70.48444286 -130.84882641 65.72694016 C-131.39355243 62.05213331 -131.93606532 58.37700257 -132.47783852 54.70175934 C-132.73685091 52.94577169 -132.99641821 51.1898658 -133.25655174 49.43404388 C-133.6176212 46.99385865 -133.97584864 44.55327335 -134.33325195 42.11254883 C-134.44074768 41.38949051 -134.54824341 40.66643219 -134.65899658 39.92146301 C-135.06884383 37.10532485 -135.38720703 34.42518611 -135.38720703 31.57446289 C-129.38843869 30.77675433 -126.54670365 32.35544 -121.77832031 35.94262695 C-120.98925293 36.56363281 -120.20018555 37.18463867 -119.38720703 37.82446289 C-118.55560059 38.45835938 -117.72399414 39.09225586 -116.8671875 39.74536133 C-114.35747876 41.66836619 -111.86901258 43.61562002 -109.38720703 45.57446289 C-108.68370117 46.12875977 -107.98019531 46.68305664 -107.25537109 47.25415039 C-104.11414913 49.73869782 -100.99078241 52.2440918 -97.87939453 54.76586914 C-94.50990291 57.49083558 -91.08330983 60.13492342 -87.63720703 62.76196289 C-83.53029707 65.89398136 -79.49541566 69.09837375 -75.51220703 72.38696289 C-74.62146484 73.11399414 -73.73072266 73.84102539 -72.81298828 74.59008789 C-71.34039151 75.79472422 -69.87673429 77.01055537 -68.43017578 78.24633789 C-65.05336965 80.95997894 -61.9799279 82.50772443 -57.57495117 82.37207031 C-52.31194824 80.45328551 -49.74223914 74.27132239 -46.94970703 69.69946289 C-46.16970309 68.46974135 -45.38686015 67.24181639 -44.60131836 66.015625 C-42.97824132 63.47469638 -41.37013939 60.92519556 -39.77294922 58.36791992 C-36.82516277 53.6605939 -33.77140247 49.02589121 -30.71606445 44.38793945 C-27.25278447 39.13003998 -23.82266783 33.85056175 -20.38720703 28.57446289 C-19.12812878 26.64344962 -17.86901548 24.7124592 -16.60986328 22.78149414 C-15.45213662 21.0042641 -14.29457474 19.2269267 -13.13720703 17.44946289 C-12.36799927 16.26912476 -12.36799927 16.26912476 -11.58325195 15.06494141 C-11.10090088 14.32300537 -10.6185498 13.58106934 -10.12158203 12.81665039 C-9.66074219 12.11507812 -9.19990234 11.41350586 -8.72509766 10.69067383 C-7.80547328 9.23605629 -6.93104021 7.75218942 -6.09619141 6.24731445 C-5.68175781 5.51222656 -5.26732422 4.77713867 -4.84033203 4.01977539 C-4.48616211 3.3573584 -4.13199219 2.69494141 -3.76708984 2.01245117 C-2.38720703 0.57446289 -2.38720703 0.57446289 0 0 Z " fill="#F2B728" transform="translate(457.38720703125,89.425537109375)"/>
  <path d="M0 0 C0.33 0 0.66 0 1 0 C1.226875 1.155 1.45375 2.31 1.6875 3.5 C3.36692478 10.0439655 6.20148216 15.1350725 11.9375 18.875 C17.58045981 22.18893533 22.79057171 23.27709004 29.3125 23.25 C30.54613281 23.25515625 31.77976562 23.2603125 33.05078125 23.265625 C36.14503946 23.05750476 38.75564498 22.67500499 41.74682617 21.98339844 C42.54650314 21.80017029 43.34618011 21.61694214 44.17008972 21.42816162 C44.77396011 21.28686829 45.37783051 21.14557495 46 21 C46.00808685 22.02793167 46.01617371 23.05586334 46.02450562 24.11494446 C46.10225153 33.83899571 46.19006077 43.56291193 46.28752708 53.28678608 C46.337308 58.28499429 46.38363857 63.28318322 46.421875 68.28149414 C46.4589591 73.1121216 46.50537943 77.94258014 46.55806351 82.77306175 C46.57648534 84.60884807 46.59163749 86.44467043 46.60334396 88.28051186 C46.71558903 105.28641786 47.40124916 119.8925899 59.72265625 132.90234375 C75.1055872 147.07152714 93.17359926 147.87998262 113 148 C113 149.65 113 151.3 113 153 C87.75673334 155.95569894 63.44390803 154.07264774 40 144 C38.38171375 143.31332268 36.7632138 142.62714885 35.14453125 141.94140625 C34.31663086 141.59005615 33.48873047 141.23870605 32.63574219 140.87670898 C10.76639023 131.60711494 -9.50366903 129.53068134 -33.1875 130 C-67.97629175 130.68581519 -96.86250804 122.65889607 -124 100 C-124.33 99.34 -124.66 98.68 -125 98 C-124.38705078 97.79955078 -123.77410156 97.59910156 -123.14257812 97.39257812 C-110.23753087 93.1359395 -97.8764775 88.63490363 -86 82 C-85.38785645 81.66419922 -84.77571289 81.32839844 -84.14501953 80.98242188 C-69.60478013 72.93547394 -56.57583946 62.74869496 -44.51171875 51.359375 C-42.45394721 49.42641387 -40.36763388 47.60280862 -38.1875 45.8125 C-35.13683011 43.23003844 -32.58644557 40.361145 -30.00390625 37.31640625 C-28.08572813 35.09909703 -26.1017521 32.95604637 -24.09570312 30.81835938 C-15.62065859 21.75558637 -8.22500572 12.01300847 -1.27734375 1.73046875 C-0.85582031 1.15941406 -0.43429688 0.58835937 0 0 Z " fill="#B73F3F" transform="translate(225,583)"/>
  <path d="M0 0 C2.69359028 32.16951221 2.69359028 32.16951221 -1.50732422 39.703125 C-5.30869506 43.49582351 -9.89116271 45.39528934 -14.89306641 47.17285156 C-17.88592178 48.34779873 -20.11933355 50.12404074 -22.5625 52.1875 C-23.31789062 52.81785156 -24.07328125 53.44820313 -24.8515625 54.09765625 C-34.05161693 61.86952031 -34.05161693 61.86952031 -38.37890625 72.6875 C-38.93078653 81.89333277 -35.96446121 87.24607898 -30.1953125 94.1640625 C-24.83008035 99.90506967 -18.5648494 104.48183488 -12.3137207 109.19580078 C-1.69272297 117.21585767 9.36721238 125.57226631 13 139 C13.92243442 147.45207353 12.96121056 154.47502476 9 162 C8.56300781 162.84046875 8.12601562 163.6809375 7.67578125 164.546875 C5.75210455 167.36288658 3.82146542 168.85222862 1 170.75 C0.13375 171.34296875 -0.7325 171.9359375 -1.625 172.546875 C-7.05910732 175.87169067 -12.82072059 175.44254786 -19 175 C-24.29805465 173.2660912 -26.80032773 170.38812197 -30 166 C-31.23987863 162.2803641 -31.5369813 158.86475277 -31 155 C-28.51022957 150.69078194 -25.56956133 148.84726948 -21 147 C-20.01 147 -19.02 147 -18 147 C-21.30844002 141.36339848 -25.33820901 138.05592874 -30.56835938 134.18383789 C-49.01638707 120.35038219 -68.10746564 101.97784862 -73.75 78.9375 C-74.97469857 64.54729181 -71.01036426 55.58438944 -61.9296875 44.46484375 C-56.52778706 38.20134987 -50.54138729 33.03731321 -44 28 C-43.06285156 27.27039063 -42.12570313 26.54078125 -41.16015625 25.7890625 C-30.76607633 17.83654498 -19.87427638 10.65667003 -8.6875 3.875 C-8.04707764 3.48441406 -7.40665527 3.09382813 -6.74682617 2.69140625 C-2.24300249 0 -2.24300249 0 0 0 Z " fill="#205580" transform="translate(271,414)"/>
  <path d="M0 0 C0.00808685 1.02793167 0.01617371 2.05586334 0.02450562 3.11494446 C0.10225153 12.83899571 0.19006077 22.56291193 0.28752708 32.28678608 C0.337308 37.28499429 0.38363857 42.28318322 0.421875 47.28149414 C0.4589591 52.1121216 0.50537943 56.94258014 0.55806351 61.77306175 C0.57648534 63.60884807 0.59163749 65.44467043 0.60334396 67.28051186 C0.71558903 84.28641786 1.40124916 98.8925899 13.72265625 111.90234375 C29.1055872 126.07152714 47.17359926 126.87998262 67 127 C67 128.65 67 130.3 67 132 C41.75673334 134.95569894 17.44390803 133.07264774 -6 123 C-7.61828625 122.31332268 -9.2367862 121.62714885 -10.85546875 120.94140625 C-11.68336914 120.59005615 -12.51126953 120.23870605 -13.36425781 119.87670898 C-27.24873838 113.99160097 -40.06068976 111.02887576 -55 109 C-55 108.67 -55 108.34 -55 108 C-61.93 107.34 -68.86 106.68 -76 106 C-75.67 105.01 -75.34 104.02 -75 103 C-75.33 102.01 -75.66 101.02 -76 100 C-74.948125 99.01 -74.948125 99.01 -73.875 98 C-68.0534248 92.1580197 -63.71805006 85.16318727 -59.5 78.125 C-58.82904297 77.01705078 -58.82904297 77.01705078 -58.14453125 75.88671875 C-57.22939057 74.37372112 -56.31756586 72.85871324 -55.40893555 71.34179688 C-54.45068564 69.74908623 -53.48302018 68.1620108 -52.50708008 66.58007812 C-48.86029862 60.62892471 -45.67344649 54.55677061 -42.6875 48.25 C-42.21892578 47.26427002 -41.75035156 46.27854004 -41.26757812 45.26293945 C-38.0003033 38.31003273 -34.92301296 31.2917482 -32 24.1875 C-31.63865967 23.3119043 -31.27731934 22.43630859 -30.9050293 21.53417969 C-28.58412077 15.78004288 -26.68300358 9.97099709 -25 4 C-24.41508789 3.91435791 -23.83017578 3.82871582 -23.22753906 3.74047852 C-20.56805057 3.34988922 -17.90902581 2.95622627 -15.25 2.5625 C-13.86941406 2.36043945 -13.86941406 2.36043945 -12.4609375 2.15429688 C-11.57148438 2.02216797 -10.68203125 1.89003906 -9.765625 1.75390625 C-8.54020996 1.57323608 -8.54020996 1.57323608 -7.29003906 1.38891602 C-4.90151597 0.98327451 -2.41405034 0 0 0 Z " fill="#A13035" transform="translate(271,604)"/>
  <path d="M0 0 C4.48920753 8.8187988 4.48920753 8.8187988 5 13 C2.8125 16.1875 2.8125 16.1875 0 19 C-3.46129157 26.08740656 -2.80909424 34.33109356 -0.5 41.6875 C2.51715833 49.09806432 7.4577736 54.06362768 14.6875 57.4375 C17.7557207 58.68834683 20.75212461 59.3724285 24 60 C22.50137461 70.50445881 20.95750442 81.00166109 19.37683105 91.49407959 C19.12583056 93.16322878 18.87590994 94.83254073 18.6270752 96.50201416 C17.89545714 101.40942205 17.14511403 106.31329168 16.3682251 111.21374512 C16.12490639 112.76577407 15.8876099 114.31876047 15.65667725 115.87268066 C14.16395969 125.87515948 12.42760822 134.26348888 5.3125 141.875 C-1.52435249 146.26090537 -8.201523 147.71195943 -16.26171875 146.62890625 C-23.9345056 144.86668274 -29.52482847 141.57568393 -33.8828125 134.96484375 C-39.37903793 125.29840533 -36.80392653 114.55872499 -34.89245605 104.14019775 C-34.19635671 100.34412875 -33.52823523 96.54313544 -32.859375 92.7421875 C-32.71316711 91.91411591 -32.56695923 91.08604431 -32.4163208 90.23287964 C-31.16537593 83.08623309 -30.01744916 75.92497096 -28.890625 68.7578125 C-28.71289551 67.6297821 -28.53516602 66.50175171 -28.35205078 65.33953857 C-27.63966563 60.81070041 -26.92885501 56.28165711 -26.22827148 51.75097656 C-25.73530813 48.56495085 -25.23535488 45.38008594 -24.734375 42.1953125 C-24.58873108 41.23843536 -24.44308716 40.28155823 -24.29302979 39.29568481 C-22.94011134 30.757479 -22.94011134 30.757479 -21 27 C-19.3359375 25.953125 -19.3359375 25.953125 -17.375 25.25 C-9.90317595 21.80563828 -5.49062802 15.94687755 -2.66674805 8.36865234 C-1.71033291 5.5985155 -0.83140081 2.80997484 0 0 Z " fill="#B93F3F" transform="translate(747,459)"/>
  <path d="M0 0 C12.54 0 25.08 0 38 0 C37.37893967 10.55802562 36.65435408 20.71458776 35.1875 31.125 C33.26019561 45.32885965 31.75900398 59.55824394 30.39526367 73.82666016 C30.31677689 74.62820023 30.2382901 75.4297403 30.15742493 76.25556946 C30.01203398 77.74081708 29.87058785 79.22645973 29.73429871 80.71257019 C29.18359905 86.29714113 28.11695392 91.4152304 27 97 C3.24 97 -20.52 97 -45 97 C-45 88.60187943 -44.4811997 85.83697737 -39 80 C-30.92992332 73.21855832 -19.96720855 74.11256601 -10 74 C-7.41793183 56.6948174 -5.1738547 39.39362809 -3.3203125 21.99511719 C-2.85462889 17.64069151 -2.37227537 13.28842273 -1.875 8.9375 C-1.72804688 7.62652344 -1.58109375 6.31554687 -1.4296875 4.96484375 C-1 2 -1 2 0 0 Z " fill="#205580" transform="translate(356,731)"/>
  <path d="M0 0 C12.54 0 25.08 0 38 0 C38.48919922 4.03927734 38.48919922 4.03927734 38.98828125 8.16015625 C40.31577399 19.10796598 41.6532454 30.05454318 43 41 C43.0863269 41.70195496 43.17265381 42.40390991 43.26159668 43.12713623 C43.72879673 46.91914325 44.20463174 50.70995823 44.6875 54.5 C44.79425049 55.36117432 44.90100098 56.22234863 45.01098633 57.10961914 C45.98954699 65.16651703 45.98954699 65.16651703 48 73 C50.31430711 74.15715356 51.71338016 74.13863456 54.2890625 74.17578125 C55.14886719 74.19962891 56.00867188 74.22347656 56.89453125 74.24804688 C58.69117749 74.29045698 60.48811851 74.32200571 62.28515625 74.34179688 C68.9290379 74.55404569 74.47572452 75.8214961 79.52539062 80.37573242 C84.27518545 85.65223206 85 90.0338933 85 97 C61.24 97 37.48 97 13 97 C11.37296766 92.93241915 10.61015349 90.24894106 10.08618164 86.0300293 C9.86068382 84.25483162 9.86068382 84.25483162 9.63063049 82.44377136 C9.47537399 81.166819 9.32011749 79.88986664 9.16015625 78.57421875 C8.99142676 77.22631086 8.82209844 75.8784778 8.65220642 74.53071594 C8.20519219 70.97159812 7.76625858 67.41152898 7.32904053 63.85119629 C6.89405608 60.32012264 6.45166068 56.78997991 6.00976562 53.25976562 C5.32321572 47.76933623 4.64239553 42.27822776 3.96533203 36.78662109 C3.34751715 31.78282287 2.71906959 26.78060987 2.07763672 21.77978516 C1.93651962 20.67383499 1.79540253 19.56788483 1.65000916 18.42842102 C1.38915586 16.38837304 1.12594696 14.34862424 0.85987854 12.30924988 C0.74554977 11.41160416 0.63122101 10.51395844 0.51342773 9.58911133 C0.41360092 8.8178743 0.31377411 8.04663727 0.21092224 7.25202942 C-0.01459187 4.84420169 0 2.41836535 0 0 Z " fill="#205580" transform="translate(528,731)"/>
  <path d="M0 0 C0.33 0 0.66 0 1 0 C1.72334496 5.58129896 2.43487754 11.16394166 3.13623047 16.74804688 C3.37562439 18.64134752 3.61805575 20.53426699 3.86376953 22.42675781 C7.77692474 52.61395515 7.77692474 52.61395515 0.95803833 66.72506714 C-10.47236806 90.9752907 -12.17505426 118.32528777 -15.55517578 144.59509277 C-16.49647153 151.80024158 -17.54838345 158.98955705 -18.5932312 166.18026733 C-18.93667599 168.55679811 -19.27416285 170.93409689 -19.60961914 173.31176758 C-22.09855113 190.93078329 -24.7430037 208.52691295 -27.375 226.125 C-27.49004253 226.89422413 -27.60508507 227.66344826 -27.72361374 228.45598221 C-29.14684264 237.97098983 -30.57234114 247.48565602 -32 257 C-38.625 257.125 -38.625 257.125 -42 256 C-41.26824852 245.11378947 -39.53001109 234.3474372 -37.9375 223.5625 C-37.62488308 221.43115756 -37.31230249 219.29980978 -36.99975586 217.16845703 C-34.75287002 201.89380091 -32.42111684 186.63274291 -30.0625 171.375 C-28.70541965 162.58378117 -27.35114811 153.79213253 -26 145 C-25.81507996 143.7974054 -25.63015991 142.59481079 -25.43963623 141.35577393 C-24.29651035 133.91309526 -23.16332461 126.46899962 -22.04196167 119.02301025 C-21.68462182 116.65892111 -21.32443676 114.29526002 -20.96121216 111.93206787 C-20.45602755 108.64202107 -19.9611952 105.35056816 -19.46875 102.05859375 C-19.31917343 101.09937515 -19.16959686 100.14015656 -19.01548767 99.15187073 C-17.72805851 90.4086848 -17.325828 81.89773945 -19.12890625 73.1953125 C-19.47405273 71.45507812 -19.47405273 71.45507812 -19.82617188 69.6796875 C-20.06916016 68.50664062 -20.31214844 67.33359375 -20.5625 66.125 C-21.05169418 63.754388 -21.53251544 61.38202877 -22.00390625 59.0078125 C-22.21861572 57.97285645 -22.4333252 56.93790039 -22.65454102 55.87158203 C-23.29555606 50.54322939 -21.54743701 46.64768217 -19.375 41.8359375 C-18.83705811 40.63928467 -18.29911621 39.44263184 -17.74487305 38.2097168 C-17.1634822 36.93137164 -16.5818535 35.65313464 -16 34.375 C-15.41096103 33.07148481 -14.82217655 31.7678546 -14.23364258 30.46411133 C-9.61260746 20.25085906 -4.86689164 10.09848575 0 0 Z " fill="#A8CDE3" transform="translate(803,107)"/>
  <path d="M0 0 C3.31144745 1.2417928 3.97941611 2.82030302 5.5 5.9375 C5.995 6.9275 5.995 6.9275 6.5 7.9375 C7.51567468 16.84641792 5.84676266 24.11332722 1.5 31.9375 C-0.015625 33.77734375 -0.015625 33.77734375 -1.5 34.9375 C-3.9375 34.9375 -3.9375 34.9375 -6.5 33.9375 C-10.5 29.72128378 -10.5 29.72128378 -10.5 26.9375 C-11.16 26.9375 -11.82 26.9375 -12.5 26.9375 C-12.55188477 27.53900879 -12.60376953 28.14051758 -12.65722656 28.76025391 C-13.23393286 35.00870975 -14.09316395 41.14581748 -15.25 47.3125 C-15.394375 48.18777344 -15.53875 49.06304687 -15.6875 49.96484375 C-16.45690704 54.0290503 -16.93777518 56.34225862 -19.828125 59.40234375 C-22.35657444 60.85509321 -24.7776965 62.08286819 -27.5 63.125 C-28.325 63.44855469 -29.15 63.77210938 -30 64.10546875 C-48.11646708 70.13485545 -64.22491387 64.07504306 -80.5 55.9375 C-80.5 42.7375 -80.5 29.5375 -80.5 15.9375 C-73.01 20.2175 -73.01 20.2175 -69.6875 22.4375 C-58.12260599 29.69917763 -45.18462565 31.57550871 -31.72265625 29.51171875 C-25.19779568 27.83154138 -19.3185904 24.673486 -14.5 19.9375 C-13.38042361 17.72259798 -12.78146034 15.69350983 -12.203125 13.28515625 C-10.58826016 7.89330199 -6.28682781 -0.1571707 0 0 Z " fill="#205480" transform="translate(724.5,433.0625)"/>
  <path d="M0 0 C12.89851837 1.42737789 25.72706361 3.21732093 38.5625 5.125 C40.460253 5.40517464 42.35803931 5.68512377 44.25585938 5.96484375 C48.83762614 6.64064075 53.4189368 7.31945075 58 8 C57.79516099 10.26431676 57.55700498 12.52563743 57.3046875 14.78515625 C57.11108643 16.67439819 57.11108643 16.67439819 56.91357422 18.60180664 C56 22 56 22 53.64453125 24.10351562 C51.125 25.4375 51.125 25.4375 48.5078125 26.49609375 C45.03356816 28.57955803 43.43666369 31.31438754 42 35 C41.59527302 37.0045159 41.37576951 38.96411345 41.19238281 41 C40.85655247 44.60037398 40.21037053 47.5621102 39 51 C36.11559906 53.31011153 33.46452817 54.41880615 30.01953125 55.72265625 C24.08843118 58.23167271 20.60454279 63.22793036 18.0625 69 C17.711875 69.99 17.36125 70.98 17 72 C16.67 72 16.34 72 16 72 C15.90203125 71.01 15.8040625 70.02 15.703125 69 C14.43425685 57.08788385 14.43425685 57.08788385 8.1875 47.0625 C6.46699472 44.07425399 7.17441672 41.7680991 7.65625 38.43359375 C8.70573377 31.00372572 8.48272323 26.17888877 4 20 C3.0925 19.38125 2.185 18.7625 1.25 18.125 C-1 16 -1 16 -1.3515625 14.00390625 C-1.39953051 9.26306809 -0.67690495 4.68597546 0 0 Z " fill="#BA403F" transform="translate(733,377)"/>
  <path d="M0 0 C4.33377825 3.22255306 6.75819607 6.7169297 8.4375 11.8125 C9.62692892 24.49459282 8.45098986 39.87970698 1.4375 50.8125 C-1.83920481 54.56872258 -3.93634462 56.59504764 -9.015625 57.015625 C-16.83744849 57.14671701 -21.54695575 56.57140219 -27.5 51.125 C-30.00468906 47.10231757 -30.5735749 44.42667819 -29.5625 39.8125 C-27.54747111 36.06037724 -26.10783858 34.17605905 -22.5625 31.8125 C-21.5725 31.8125 -20.5825 31.8125 -19.5625 31.8125 C-18.9025 27.8525 -18.2425 23.8925 -17.5625 19.8125 C-19.2125 19.4825 -20.8625 19.1525 -22.5625 18.8125 C-25.24921327 16.40372259 -25.54300369 14.99121621 -25.9375 11.375 C-25.39838486 6.25340622 -23.82746007 4.04417164 -20.1875 0.5 C-13.77526355 -2.48500662 -6.66156133 -2.22052044 0 0 Z " fill="#205580" transform="translate(791.5625,446.1875)"/>
  <path d="M0 0 C5.02123164 2.71534415 9.03114308 7.61686674 10.8203125 12.984375 C11.49342448 20.43274531 11.38643894 26.82159651 6.8203125 32.984375 C2.00257482 37.80211268 -3.3905238 40.1226829 -10.1171875 40.421875 C-15.20456972 40.22887871 -19.12632536 39.11770205 -23.1796875 35.984375 C-29.23209636 29.43089526 -30.61423149 24.14987995 -30.515625 15.28515625 C-30.02629065 10.47716181 -28.56516267 7.41034629 -25.1796875 3.984375 C-17.3235724 -2.11404897 -9.32420617 -3.87594452 0 0 Z " fill="#F2B927" transform="translate(468.1796875,39.015625)"/>
  <path d="M0 0 C0.71592316 -0.00700928 1.43184631 -0.01401855 2.16946411 -0.02124023 C4.53134168 -0.03881735 6.89201692 -0.02719963 9.25390625 -0.01367188 C10.89770741 -0.0163669 12.54150702 -0.02024941 14.18530273 -0.02526855 C17.62857253 -0.03116318 21.07142696 -0.02260216 24.51464844 -0.00390625 C28.92674318 0.01888371 33.33786467 0.00576037 37.74992371 -0.01819611 C41.14375126 -0.03265531 44.53734834 -0.02804763 47.93118286 -0.01768494 C49.55787267 -0.01501797 51.18458346 -0.0182864 52.81124878 -0.02760315 C55.08566653 -0.0377713 57.35851179 -0.02226664 59.6328125 0 C60.92646729 0.00318237 62.22012207 0.00636475 63.55297852 0.00964355 C67.36106338 0.60235101 68.55772003 1.4466919 70.81640625 4.51757812 C71.44894601 8.23374923 71.16900124 9.92639259 69.23413086 13.17053223 C65.97209355 16.33720855 64.13196659 16.13995757 59.6328125 16.1328125 C58.91688934 16.13836151 58.20096619 16.14391052 57.46334839 16.14962769 C55.10118278 16.16142097 52.74093712 16.13715538 50.37890625 16.11132812 C48.73510831 16.10961684 47.09130764 16.10968289 45.44750977 16.1114502 C42.00412857 16.10979715 38.56139858 16.09110293 35.11816406 16.05957031 C30.70616953 16.01989227 26.29502788 16.01552502 21.88288879 16.02303314 C18.48905637 16.02610386 15.09541542 16.01397877 11.70162964 15.99690247 C10.07495322 15.98987511 8.4482551 15.98674761 6.82156372 15.9875946 C4.54731084 15.98579519 2.27407655 15.96440287 0 15.9375 C-1.29365479 15.92908081 -2.58730957 15.92066162 -3.92016602 15.9119873 C-7.37701579 15.49420165 -8.83850485 15.0665642 -11.18359375 12.51757812 C-12.05341285 5.6677527 -12.05341285 5.6677527 -9.59936523 2.42272949 C-6.3042739 -0.17588043 -4.17036984 0.01025905 0 0 Z " fill="#0B395A" transform="translate(429.18359375,252.482421875)"/>
  <path d="M0 0 C4.31457921 1.95679801 7.1295794 4.21433136 9.7265625 8.265625 C11.66451409 14.07947976 11.74711942 20.18671276 9.0390625 25.703125 C5.5373019 29.58345431 2.26294206 33.05192451 -3.1015625 33.50390625 C-14.5444537 33.75209681 -14.5444537 33.75209681 -19.2734375 29.265625 C-23.87738481 24.03952265 -24.64169614 20.95588465 -24.54296875 14.08984375 C-24.06132629 9.04306842 -22.2965484 6.09761252 -18.578125 2.73046875 C-12.79532366 -1.47201238 -6.79561138 -2.19514594 0 0 Z " fill="#F2B927" transform="translate(609.2734375,68.734375)"/>
  <path d="M0 0 C3.74697982 3.38142082 7.31951402 6.68745477 7.80078125 11.88671875 C8.05472219 22.53887311 8.05472219 22.53887311 5.08984375 26.84375 C0.82929655 30.9408491 -4.40482486 33.04147665 -10.1875 33.8125 C-16.41672331 32.85415795 -20.41418123 30.09698718 -24.4375 25.3125 C-27.63086095 19.77734103 -28.06491905 15.37934108 -26.4375 9.3125 C-21.07896729 -0.83043692 -10.61814183 -5.21254235 0 0 Z " fill="#F2BA27" transform="translate(321.4375,69.6875)"/>
  <path d="M0 0 C1.15518918 0.90484792 2.29885406 1.8244206 3.4375 2.75 C4.07558594 3.26046875 4.71367188 3.7709375 5.37109375 4.296875 C7.31247899 6.32671664 7.5879514 7.23670937 8 10 C7.78774388 12.1844683 7.48087351 14.36032391 7.11962891 16.52514648 C7.01409195 17.17118835 6.90855499 17.81723022 6.79981995 18.48284912 C6.44975199 20.61361578 6.08825751 22.7422726 5.7265625 24.87109375 C5.48022604 26.35544251 5.23457973 27.83990595 4.98959351 29.32447815 C4.34283657 33.23149987 3.68626209 37.13681144 3.027771 41.04187012 C2.3611769 45.00668574 1.70465903 48.9731683 1.046875 52.93945312 C0.08245848 58.74226418 -0.88440517 64.54465698 -1.86083984 70.34545898 C-2.15515396 72.09607887 -2.15515396 72.09607887 -2.45541382 73.88206482 C-2.92979515 76.59805414 -3.44439656 79.29962335 -4 82 C-9.75 83.125 -9.75 83.125 -12 82 C-12.52275157 72.3040144 -10.89550821 63.06590437 -9.25 53.5625 C-8.6931876 50.27162019 -8.14298471 46.97965203 -7.59375 43.6875 C-7.45652527 42.86911148 -7.31930054 42.05072296 -7.17791748 41.20753479 C-5.70607153 32.36452551 -4.46648346 23.49327587 -3.29394531 14.60571289 C-2.6037558 9.53049348 -1.90156907 4.79562376 0 0 Z " fill="#93292E" transform="translate(750,508)"/>
  <path d="M0 0 C0 11.88 0 23.76 0 36 C-16.3373494 25.10843373 -16.3373494 25.10843373 -19 19 C-19.35001462 15.96325347 -19.3585523 14.51980068 -17.6015625 11.97265625 C-5.21267894 0 -5.21267894 0 0 0 Z " fill="#FBFCFC" transform="translate(271,473)"/>
  <path d="M0 0 C4.48920753 8.8187988 4.48920753 8.8187988 5 13 C2.8125 16.1875 2.8125 16.1875 0 19 C-1.77863418 23.29683791 -2.34199169 27.25253091 -2.625 31.875 C-2.69976563 33.02742188 -2.77453125 34.17984375 -2.8515625 35.3671875 C-2.90054688 36.23601562 -2.94953125 37.10484375 -3 38 C-3.33 38 -3.66 38 -4 38 C-3.96519531 36.95199219 -3.93039062 35.90398437 -3.89453125 34.82421875 C-3.86639063 33.44532853 -3.83909076 32.06642098 -3.8125 30.6875 C-3.78736328 29.99720703 -3.76222656 29.30691406 -3.73632812 28.59570312 C-3.64253333 24.51768766 -3.64253333 24.51768766 -5.51171875 21.01953125 C-6.00285156 20.68308594 -6.49398437 20.34664063 -7 20 C-7.51949219 20.48210937 -8.03898438 20.96421875 -8.57421875 21.4609375 C-9.27160156 22.09257812 -9.96898437 22.72421875 -10.6875 23.375 C-11.37199219 24.00148438 -12.05648437 24.62796875 -12.76171875 25.2734375 C-15 27 -15 27 -17.6875 27.8125 C-18.450625 28.204375 -19.21375 28.59625 -20 29 C-21.04417909 32.08765687 -21.04417909 32.08765687 -21.3125 35.625 C-21.45300781 36.81351562 -21.59351563 38.00203125 -21.73828125 39.2265625 C-21.82464844 40.14179688 -21.91101563 41.05703125 -22 42 C-22.33 42 -22.66 42 -23 42 C-23.40518039 30.40733888 -23.40518039 30.40733888 -21 27 C-19.81498826 26.3706397 -18.60171949 25.79360511 -17.375 25.25 C-9.90317595 21.80563828 -5.49062802 15.94687755 -2.66674805 8.36865234 C-1.71033291 5.5985155 -0.83140081 2.80997484 0 0 Z " fill="#D1403A" transform="translate(747,459)"/>
  <path d="M0 0 C0.33 0 0.66 0 1 0 C1 7.59 1 15.18 1 23 C1.66 23 2.32 23 3 23 C3 55.34 3 87.68 3 121 C2.67 121 2.34 121 2 121 C1.98969254 120.34585617 1.97938507 119.69171234 1.96876526 119.01774597 C1.8584845 112.05514801 1.74413843 105.09262435 1.62768555 98.13012695 C1.58502801 95.55006502 1.54332349 92.96998711 1.50268555 90.38989258 C1.28921796 76.87818508 1.01212548 63.37786276 0.46875 49.875 C0.02684471 38.84715016 -0.12345643 27.84791437 -0.0625 16.8125 C-0.05745097 15.15299621 -0.05289435 13.49349086 -0.04882812 11.83398438 C-0.03814632 7.88928167 -0.02109097 3.9446602 0 0 Z " fill="#7D8D9F" transform="translate(641,565)"/>
  <path d="M0 0 C0.99 0 1.98 0 3 0 C3 16.5 3 33 3 50 C2.67 50 2.34 50 2 50 C1.67 62.54 1.34 75.08 1 88 C0.67 88 0.34 88 0 88 C0 58.96 0 29.92 0 0 Z " fill="#4D7088" transform="translate(641,264)"/>
  <path d="M0 0 C0.99 0.495 0.99 0.495 2 1 C3.42441138 56.91677869 3.42441138 56.91677869 2 79 C1.67 79 1.34 79 1 79 C0.03421776 61.51286611 -0.12249435 44.07292535 -0.0625 26.5625 C-0.05746801 23.96940192 -0.05290815 21.37630288 -0.04882812 18.78320312 C-0.03797312 12.52211393 -0.02137344 6.26106169 0 0 Z " fill="#092347" transform="translate(641,509)"/>
  <path d="M0 0 C0.99 0.33 1.98 0.66 3 1 C2.67 1.66 2.34 2.32 2 3 C13.385 3.99 13.385 3.99 25 5 C25 5.33 25 5.66 25 6 C9.49 6.33 -6.02 6.66 -22 7 C-22 6.67 -22 6.34 -22 6 C-15.61773055 5.17648136 -9.43255401 4.87913782 -3 5 C-2.690625 4.360625 -2.38125 3.72125 -2.0625 3.0625 C-1 1 -1 1 0 0 Z " fill="#C13432" transform="translate(194,706)"/>
  <path d="M0 0 C1.50560497 2.85410334 2.63216796 5.68124642 3.625 8.75 C3.88539063 9.54921875 4.14578125 10.3484375 4.4140625 11.171875 C4.60742188 11.77515625 4.80078125 12.3784375 5 13 C3.35 14.32 1.7 15.64 0 17 C-0.66 16.67 -1.32 16.34 -2 16 C-3.64049293 9.94279535 -2.29807462 5.72571134 0 0 Z " fill="#B43E3E" transform="translate(747,459)"/>
  <path d="M0 0 C3.72915017 -0.02912348 7.4582709 -0.04684037 11.1875 -0.0625 C12.77014648 -0.07506836 12.77014648 -0.07506836 14.38476562 -0.08789062 C15.91713867 -0.09272461 15.91713867 -0.09272461 17.48046875 -0.09765625 C18.41785889 -0.10289307 19.35524902 -0.10812988 20.32104492 -0.11352539 C22.98049477 -0.00082657 25.40920573 0.40623351 28 1 C28 1.33 28 1.66 28 2 C18.63293695 3.44108662 9.36706305 3.44108662 0 2 C0 1.34 0 0.68 0 0 Z " fill="#344C69" transform="translate(663,515)"/>
  <path d="M0 0 C1.37671875 -0.00386719 1.37671875 -0.00386719 2.78125 -0.0078125 C5.45004454 0.12255965 7.89865153 0.53121394 10.5 1.125 C6.87653931 3.54064046 4.18396018 3.42281669 0 3.375 C-0.67675781 3.38273437 -1.35351562 3.39046875 -2.05078125 3.3984375 C-5.74919257 3.38384811 -7.34603337 3.22764442 -10.5 1.125 C-6.94075986 0.31256475 -3.64872305 -0.01024922 0 0 Z " fill="#304B68" transform="translate(458.5,16.875)"/>
  <path d="M0 0 C-0.33 0.99 -0.66 1.98 -1 3 C-4.69540402 4.23180134 -8.10303378 4.12412112 -11.94921875 4.09765625 C-12.72183548 4.0962413 -13.49445221 4.09482635 -14.29048157 4.09336853 C-16.75619389 4.08777466 -19.22181515 4.07522333 -21.6875 4.0625 C-23.36002473 4.05748421 -25.03255088 4.05292144 -26.70507812 4.04882812 C-30.80342046 4.03780724 -34.90169479 4.02054684 -39 4 C-39 3.67 -39 3.34 -39 3 C-38.0212793 2.98018066 -37.04255859 2.96036133 -36.03417969 2.93994141 C-32.39606403 2.86375376 -28.75834147 2.77505705 -25.12060547 2.68261719 C-23.54744235 2.64438171 -21.97419342 2.60951934 -20.40087891 2.578125 C-18.13673277 2.53235578 -15.87317453 2.47438239 -13.609375 2.4140625 C-12.90818542 2.40251129 -12.20699585 2.39096008 -11.48455811 2.37905884 C-7.28818306 2.2527977 -3.84660838 0 0 0 Z " fill="#275E8C" transform="translate(499,266)"/>
  <path d="M0 0 C9.57 0.33 19.14 0.66 29 1 C29 2.32 29 3.64 29 5 C28.34 4.67 27.68 4.34 27 4 C27.33 3.34 27.66 2.68 28 2 C23.35413108 2.48484276 23.35413108 2.48484276 19 4 C17.33380554 4.0396713 15.66608987 4.04384447 14 4 C14 3.34 14 2.68 14 2 C13.15695312 2.02320313 12.31390625 2.04640625 11.4453125 2.0703125 C9.80175781 2.09738281 9.80175781 2.09738281 8.125 2.125 C7.03445313 2.14820313 5.94390625 2.17140625 4.8203125 2.1953125 C2 2 2 2 0 0 Z " fill="#C22F2B" transform="translate(309,730)"/>
  <path d="M0 0 C0.33 0 0.66 0 1 0 C1.33 1.98 1.66 3.96 2 6 C0.6696875 6.556875 0.6696875 6.556875 -0.6875 7.125 C-4.58399884 9.33056538 -6.32630578 11.46128706 -9 15 C-9 10.93968076 -6.94806989 8.88586698 -4.5625 5.8125 C-4.14162109 5.25369141 -3.72074219 4.69488281 -3.28710938 4.11914062 C-2.22142438 2.72266701 -1.11398251 1.35825845 0 0 Z " fill="#C9413B" transform="translate(224,585)"/>
  <path d="M0 0 C-0.33 0.99 -0.66 1.98 -1 3 C-3.31 3.33 -5.62 3.66 -8 4 C-8.33 5.32 -8.66 6.64 -9 8 C-10.65 7.67 -12.3 7.34 -14 7 C-14 6.34 -14 5.68 -14 5 C-12.04350603 4.16235732 -10.08474444 3.33000941 -8.125 2.5 C-6.48917969 1.80390625 -6.48917969 1.80390625 -4.8203125 1.09375 C-2 0 -2 0 0 0 Z " fill="#C6413E" transform="translate(130,671)"/>
  <path d="M0 0 C0.66 0.33 1.32 0.66 2 1 C-4.27087737 4.71607548 -8.75460274 5.53449652 -16 5 C-16 4.01 -16 3.02 -16 2 C-14.77023437 2.03480469 -14.77023437 2.03480469 -13.515625 2.0703125 C-12.43796875 2.08835937 -11.3603125 2.10640625 -10.25 2.125 C-9.18265625 2.14820312 -8.1153125 2.17140625 -7.015625 2.1953125 C-4.035278 2.00228484 -2.57185626 1.37860764 0 0 Z " fill="#F1CA1F" transform="translate(469,74)"/>
  <path d="M0 0 C-3 2 -3 2 -6 3 C-1.05 6.96 -1.05 6.96 4 11 C-0.03381023 11 -1.49433637 9.40426438 -4.6875 7 C-5.68136719 6.2575 -6.67523438 5.515 -7.69921875 4.75 C-8.45847656 4.1725 -9.21773438 3.595 -10 3 C-6.88378718 -0.11621282 -4.21175599 -0.11383124 0 0 Z " fill="#D1423C" transform="translate(110,679)"/>
  <path d="M0 0 C0.66 0 1.32 0 2 0 C2.22281874 1.91503674 2.42771076 3.83216506 2.625 5.75 C2.74101562 6.81734375 2.85703125 7.8846875 2.9765625 8.984375 C3.00029475 12.03792399 2.61420985 13.46162421 1 16 C0.14701624 12.32612505 -0.10789471 8.9552607 -0.0625 5.1875 C-0.05347656 4.21167969 -0.04445313 3.23585938 -0.03515625 2.23046875 C-0.02355469 1.49441406 -0.01195312 0.75835937 0 0 Z " fill="#3C516D" transform="translate(275,78)"/>
  <path d="M0 0 C0 3.36325923 -0.57787759 4.25757043 -2.375 7 C-2.81585937 7.680625 -3.25671875 8.36125 -3.7109375 9.0625 C-4.80636017 10.70895346 -5.9030448 12.3545672 -7 14 C-7 10.37 -7 6.74 -7 3 C-6.01 3.495 -6.01 3.495 -5 4 C-3.35 2.68 -1.7 1.36 0 0 Z " fill="#D7423C" transform="translate(756,435)"/>
  <path d="M0 0 C0.66 0.33 1.32 0.66 2 1 C2.05447047 2.41623216 2.09300508 3.83308191 2.125 5.25 C2.14820313 6.03890625 2.17140625 6.8278125 2.1953125 7.640625 C1.9828378 10.20731941 1.28654105 11.7916067 0 14 C-0.19393875 11.85473901 -0.37998676 9.70876323 -0.5625 7.5625 C-0.71912109 5.77005859 -0.71912109 5.77005859 -0.87890625 3.94140625 C-0.91886719 2.97074219 -0.95882812 2.00007812 -1 1 C-0.67 0.67 -0.34 0.34 0 0 Z " fill="#2E4866" transform="translate(766,152)"/>
  <path d="M0 0 C0.928125 0.20625 1.85625 0.4125 2.8125 0.625 C2.4825 1.615 2.1525 2.605 1.8125 3.625 C1.8125 2.965 1.8125 2.305 1.8125 1.625 C-0.1675 2.615 -0.1675 2.615 -2.1875 3.625 C-2.1875 4.285 -2.1875 4.945 -2.1875 5.625 C-3.8375 5.625 -5.4875 5.625 -7.1875 5.625 C-6.875 3.75 -6.875 3.75 -6.1875 1.625 C-3.1875 -0.375 -3.1875 -0.375 0 0 Z " fill="#BF9934" transform="translate(591.1875,119.375)"/>
  <path d="M0 0 C0.99 0.33 1.98 0.66 3 1 C3 1.66 3 2.32 3 3 C2.34 3 1.68 3 1 3 C1 3.66 1 4.32 1 5 C-1.64 5.66 -4.28 6.32 -7 7 C-4.78071806 4.09197539 -3.07030857 2.04687238 0 0 Z " fill="#F6C522" transform="translate(546,151)"/>
  <path d="M0 0 C1.49251706 2.98503412 2.60987721 5.61234773 3.625 8.75 C3.88539063 9.54921875 4.14578125 10.3484375 4.4140625 11.171875 C4.60742188 11.77515625 4.80078125 12.3784375 5 13 C4.34 13 3.68 13 3 13 C2.34 11.35 1.68 9.7 1 8 C0.01 8.33 -0.98 8.66 -2 9 C-1.34 6.03 -0.68 3.06 0 0 Z " fill="#D1423B" transform="translate(747,459)"/>
  <path d="M0 0 C2 1 2 1 2.8515625 3.06640625 C3.10679687 3.89011719 3.36203125 4.71382813 3.625 5.5625 C3.88539063 6.38878906 4.14578125 7.21507812 4.4140625 8.06640625 C4.60742188 8.70449219 4.80078125 9.34257812 5 10 C3.35 8.68 1.7 7.36 0 6 C0 6.66 0 7.32 0 8 C-0.66 8 -1.32 8 -2 8 C-2 6.68 -2 5.36 -2 4 C-1.34 4 -0.68 4 0 4 C0 2.68 0 1.36 0 0 Z " fill="#C6413E" transform="translate(744,498)"/>
  <path d="M0 0 C2 2 2 2 2.25 5.375 C2.02515633 8.63523324 1.7239511 10.30632641 0 13 C-1.28571429 4.57142857 -1.28571429 4.57142857 0 0 Z " fill="#465870" transform="translate(823,153)"/>
  <path d="M0 0 C0.66 0.33 1.32 0.66 2 1 C0.68775452 4.93673644 -0.91910327 7.22719294 -4 10 C-4.66 9.67 -5.32 9.34 -6 9 C-4.02 6.03 -2.04 3.06 0 0 Z " fill="#2D4664" transform="translate(404,133)"/>
  <path d="M0 0 C0 3 0 3 -1.0625 5.0625 C-3.72227001 7.72227001 -6.38960768 8.18255268 -10 9 C-6.83047153 5.73991357 -3.60062011 2.77762123 0 0 Z " fill="#3B506D" transform="translate(566,111)"/>
  <path d="M0 0 C0.99 0.33 1.98 0.66 3 1 C3 1.66 3 2.32 3 3 C1.68 3 0.36 3 -1 3 C-1.66 4.32 -2.32 5.64 -3 7 C-3.99 7 -4.98 7 -6 7 C-4.61990379 3.66476748 -3.15049348 1.81392049 0 0 Z " fill="#2E4968" transform="translate(552,122)"/>
  <path d="M0 0 C-2 3 -2 3 -4.125 3.6875 C-4.74375 3.790625 -5.3625 3.89375 -6 4 C-6 2.68 -6 1.36 -6 0 C-3.50907189 -1.24546405 -2.58919267 -0.7767578 0 0 Z " fill="#213F5F" transform="translate(300,52)"/>
  <path d="M0 0 C0.33 0 0.66 0 1 0 C1.19477739 1.62414378 1.38059458 3.24936423 1.5625 4.875 C1.66691406 5.77992188 1.77132812 6.68484375 1.87890625 7.6171875 C2 10 2 10 1 12 C0.34 12 -0.32 12 -1 12 C-0.67 8.04 -0.34 4.08 0 0 Z " fill="#334663" transform="translate(702,518)"/>
  <path d="M0 0 C0.66 0 1.32 0 2 0 C1.8125 2.375 1.8125 2.375 1 5 C-1.5625 6.3125 -1.5625 6.3125 -4 7 C-2.68 4.69 -1.36 2.38 0 0 Z " fill="#2F4866" transform="translate(425,101)"/>
  <path d="M0 0 C0.66 0.33 1.32 0.66 2 1 C-3.14285714 6.57142857 -3.14285714 6.57142857 -7 7 C-4.66666667 4.66666667 -2.33333333 2.33333333 0 0 Z " fill="#F8CB20" transform="translate(531,163)"/>
  <path d="M0 0 C0.66 1.32 1.32 2.64 2 4 C0.02 4.99 0.02 4.99 -2 6 C-2.33 5.34 -2.66 4.68 -3 4 C-2.01 2.68 -1.02 1.36 0 0 Z " fill="#F1C323" transform="translate(440,114)"/>
  <path d="M0 0 C0.66 0.99 1.32 1.98 2 3 C1.38125 3.2475 0.7625 3.495 0.125 3.75 C-2.35068687 5.20628639 -2.95125002 6.37812506 -4 9 C-3.46930939 5.17902761 -2.50298434 2.93828597 0 0 Z " fill="#1A3254" transform="translate(282,63)"/>
  <path d="M0 0 C2.97 0 5.94 0 9 0 C8.67 1.98 8.34 3.96 8 6 C7.67 4.68 7.34 3.36 7 2 C4.69 1.67 2.38 1.34 0 1 C0 0.67 0 0.34 0 0 Z " fill="#DB4239" transform="translate(782,385)"/>
  <path d="M0 0 C0.66 0 1.32 0 2 0 C1.67 0.99 1.34 1.98 1 3 C0.34 2.67 -0.32 2.34 -1 2 C-0.67 1.34 -0.34 0.68 0 0 Z M-3 1 C-2.34 2.32 -1.68 3.64 -1 5 C-1.99 5.33 -2.98 5.66 -4 6 C-3.67 4.35 -3.34 2.7 -3 1 Z " fill="#103453" transform="translate(723,366)"/>
  <path d="M0 0 C0.33 0 0.66 0 1 0 C2.35384615 6.4 2.35384615 6.4 0.5625 9.4375 C0.046875 9.953125 -0.46875 10.46875 -1 11 C-1.125 3.375 -1.125 3.375 0 0 Z " fill="#BCDFEF" transform="translate(765,335)"/>
  <path d="M0 0 C0 3.52809907 -0.64276511 4.46815512 -3 7 C-3.99 7 -4.98 7 -6 7 C-5.67 6.34 -5.34 5.68 -5 5 C-4.71125 4.319375 -4.4225 3.63875 -4.125 2.9375 C-3 1 -3 1 0 0 Z " fill="#0B2A64" transform="translate(299,71)"/>
</svg>
